solid CATIA STL
  facet normal  0.000000e+000  0.000000e+000  1.000000e+000
    outer loop
      vertex -4.339158e-001 -1.901109e+000  1.500000e+001
      vertex  4.339158e-001 -1.901109e+000  1.500000e+001
      vertex  9.596003e-002 -1.872543e+000  1.500000e+001
    endloop
  endfacet
  facet normal  0.000000e+000  0.000000e+000  9.999999e-001
    outer loop
      vertex  9.596003e-002 -1.872543e+000  1.500000e+001
      vertex -7.260089e-001 -1.728738e+000  1.500000e+001
      vertex -4.339158e-001 -1.901109e+000  1.500000e+001
    endloop
  endfacet
  facet normal  -0.000000e+000  0.000000e+000  1.000000e+000
    outer loop
      vertex  4.339158e-001  1.901109e+000  1.500000e+001
      vertex -9.596003e-002  1.872543e+000  1.500000e+001
      vertex  7.260089e-001  1.728738e+000  1.500000e+001
    endloop
  endfacet
  facet normal  -0.000000e+000  0.000000e+000  1.000000e+000
    outer loop
      vertex  4.339158e-001  1.901109e+000  1.500000e+001
      vertex -4.339158e-001  1.901109e+000  1.500000e+001
      vertex -9.596003e-002  1.872543e+000  1.500000e+001
    endloop
  endfacet
  facet normal  0.000000e+000  0.000000e+000  1.000000e+000
    outer loop
      vertex -1.215805e+000  1.524571e+000  1.500000e+001
      vertex -1.756889e+000  8.460733e-001  1.500000e+001
      vertex -1.523843e+000  1.092487e+000  1.500000e+001
    endloop
  endfacet
  facet normal  0.000000e+000  0.000000e+000  1.000000e+000
    outer loop
      vertex -1.846947e+000  3.231259e-001  1.500000e+001
      vertex -1.523843e+000  1.092487e+000  1.500000e+001
      vertex -1.756889e+000  8.460733e-001  1.500000e+001
    endloop
  endfacet
  facet normal  0.000000e+000  0.000000e+000  1.000000e+000
    outer loop
      vertex -1.404183e+000 -1.242536e+000  1.500000e+001
      vertex -1.804241e+000 -5.102341e-001  1.500000e+001
      vertex -1.756889e+000 -8.460733e-001  1.500000e+001
    endloop
  endfacet
  facet normal  0.000000e+000  0.000000e+000  1.000000e+000
    outer loop
      vertex -1.756889e+000 -8.460733e-001  1.500000e+001
      vertex -1.215805e+000 -1.524571e+000  1.500000e+001
      vertex -1.404183e+000 -1.242536e+000  1.500000e+001
    endloop
  endfacet
  facet normal  -0.000000e+000  -0.000000e+000  9.999999e-001
    outer loop
      vertex -1.404183e+000 -1.242536e+000  1.500000e+001
      vertex -1.215805e+000 -1.524571e+000  1.500000e+001
      vertex -7.260089e-001 -1.728738e+000  1.500000e+001
    endloop
  endfacet
  facet normal  0.000000e+000  0.000000e+000  1.000000e+000
    outer loop
      vertex -4.339158e-001 -1.901109e+000  1.500000e+001
      vertex -7.260089e-001 -1.728738e+000  1.500000e+001
      vertex -1.215805e+000 -1.524571e+000  1.500000e+001
    endloop
  endfacet
  facet normal  0.000000e+000  0.000000e+000  1.000000e+000
    outer loop
      vertex  1.215805e+000  1.524571e+000  1.500000e+001
      vertex  4.339158e-001  1.901109e+000  1.500000e+001
      vertex  7.260089e-001  1.728738e+000  1.500000e+001
    endloop
  endfacet
  facet normal  0.000000e+000  0.000000e+000  1.000000e+000
    outer loop
      vertex  7.260089e-001  1.728738e+000  1.500000e+001
      vertex  1.404183e+000  1.242536e+000  1.500000e+001
      vertex  1.215805e+000  1.524571e+000  1.500000e+001
    endloop
  endfacet
  facet normal  -0.000000e+000  -0.000000e+000  1.000000e+000
    outer loop
      vertex  1.215805e+000  1.524571e+000  1.500000e+001
      vertex  1.404183e+000  1.242536e+000  1.500000e+001
      vertex  1.756889e+000  8.460733e-001  1.500000e+001
    endloop
  endfacet
  facet normal  0.000000e+000  0.000000e+000  1.000000e+000
    outer loop
      vertex  1.404183e+000  1.242536e+000  1.500000e+001
      vertex  1.804241e+000  5.102341e-001  1.500000e+001
      vertex  1.756889e+000  8.460733e-001  1.500000e+001
    endloop
  endfacet
  facet normal  0.000000e+000  0.000000e+000  1.000000e+000
    outer loop
      vertex  1.846947e+000 -3.231259e-001  1.500000e+001
      vertex  1.523843e+000 -1.092487e+000  1.500000e+001
      vertex  1.756889e+000 -8.460733e-001  1.500000e+001
    endloop
  endfacet
  facet normal  0.000000e+000  0.000000e+000  1.000000e+000
    outer loop
      vertex  1.215805e+000 -1.524571e+000  1.500000e+001
      vertex  1.756889e+000 -8.460733e-001  1.500000e+001
      vertex  1.523843e+000 -1.092487e+000  1.500000e+001
    endloop
  endfacet
  facet normal  -0.000000e+000  0.000000e+000  1.000000e+000
    outer loop
      vertex  8.989229e-001 -1.645467e+000  1.500000e+001
      vertex  9.596003e-002 -1.872543e+000  1.500000e+001
      vertex  4.339158e-001 -1.901109e+000  1.500000e+001
    endloop
  endfacet
  facet normal  0.000000e+000  0.000000e+000  1.000000e+000
    outer loop
      vertex  8.989229e-001 -1.645467e+000  1.500000e+001
      vertex  4.339158e-001 -1.901109e+000  1.500000e+001
      vertex  1.215805e+000 -1.524571e+000  1.500000e+001
    endloop
  endfacet
  facet normal  0.000000e+000  -0.000000e+000  1.000000e+000
    outer loop
      vertex  8.989229e-001 -1.645467e+000  1.500000e+001
      vertex  1.215805e+000 -1.524571e+000  1.500000e+001
      vertex  1.523843e+000 -1.092487e+000  1.500000e+001
    endloop
  endfacet
  facet normal  0.000000e+000  0.000000e+000  1.000000e+000
    outer loop
      vertex -8.989229e-001  1.645467e+000  1.500000e+001
      vertex -9.596003e-002  1.872543e+000  1.500000e+001
      vertex -4.339158e-001  1.901109e+000  1.500000e+001
    endloop
  endfacet
  facet normal  0.000000e+000  0.000000e+000  1.000000e+000
    outer loop
      vertex -8.989229e-001  1.645467e+000  1.500000e+001
      vertex -4.339158e-001  1.901109e+000  1.500000e+001
      vertex -1.215805e+000  1.524571e+000  1.500000e+001
    endloop
  endfacet
  facet normal  -0.000000e+000  0.000000e+000  1.000000e+000
    outer loop
      vertex -8.989229e-001  1.645467e+000  1.500000e+001
      vertex -1.215805e+000  1.524571e+000  1.500000e+001
      vertex -1.523843e+000  1.092487e+000  1.500000e+001
    endloop
  endfacet
  facet normal  0.000000e+000  0.000000e+000  1.000000e+000
    outer loop
      vertex  1.950000e+000  0.000000e+000  1.500000e+001
      vertex  1.756889e+000  8.460733e-001  1.500000e+001
      vertex  1.804241e+000  5.102341e-001  1.500000e+001
    endloop
  endfacet
  facet normal  0.000000e+000  0.000000e+000  1.000000e+000
    outer loop
      vertex  1.950000e+000  0.000000e+000  1.500000e+001
      vertex  1.804241e+000  5.102341e-001  1.500000e+001
      vertex  1.846947e+000 -3.231259e-001  1.500000e+001
    endloop
  endfacet
  facet normal  -0.000000e+000  0.000000e+000  1.000000e+000
    outer loop
      vertex  1.950000e+000  0.000000e+000  1.500000e+001
      vertex  1.846947e+000 -3.231259e-001  1.500000e+001
      vertex  1.756889e+000 -8.460733e-001  1.500000e+001
    endloop
  endfacet
  facet normal  0.000000e+000  0.000000e+000  1.000000e+000
    outer loop
      vertex -1.950000e+000  2.388061e-016  1.500000e+001
      vertex -1.756889e+000 -8.460733e-001  1.500000e+001
      vertex -1.804241e+000 -5.102341e-001  1.500000e+001
    endloop
  endfacet
  facet normal  0.000000e+000  0.000000e+000  1.000000e+000
    outer loop
      vertex -1.950000e+000  2.388061e-016  1.500000e+001
      vertex -1.804241e+000 -5.102341e-001  1.500000e+001
      vertex -1.846947e+000  3.231259e-001  1.500000e+001
    endloop
  endfacet
  facet normal  0.000000e+000  -0.000000e+000  1.000000e+000
    outer loop
      vertex -1.950000e+000  2.388061e-016  1.500000e+001
      vertex -1.846947e+000  3.231259e-001  1.500000e+001
      vertex -1.756889e+000  8.460733e-001  1.500000e+001
    endloop
  endfacet
  facet normal -2.721135e-001  9.622217e-001  9.139568e-003
    outer loop
      vertex -8.989229e-001  1.645467e+000  1.500000e+001
      vertex -7.191383e-001  1.316374e+000  5.500000e+001
      vertex -9.596003e-002  1.872543e+000  1.500000e+001
    endloop
  endfacet
  facet normal -2.721135e-001  9.622217e-001  9.139569e-003
    outer loop
      vertex -9.596003e-002  1.872543e+000  1.500000e+001
      vertex -7.191383e-001  1.316374e+000  5.500000e+001
      vertex -7.676803e-002  1.498034e+000  5.500000e+001
    endloop
  endfacet
  facet normal  1.723266e-001  9.849975e-001  9.139569e-003
    outer loop
      vertex -9.596003e-002  1.872543e+000  1.500000e+001
      vertex -7.676803e-002  1.498034e+000  5.500000e+001
      vertex  7.260089e-001  1.728738e+000  1.500000e+001
    endloop
  endfacet
  facet normal  1.723266e-001  9.849974e-001  9.139569e-003
    outer loop
      vertex  7.260089e-001  1.728738e+000  1.500000e+001
      vertex -7.676803e-002  1.498034e+000  5.500000e+001
      vertex  5.808071e-001  1.382991e+000  5.500000e+001
    endloop
  endfacet
  facet normal  5.826353e-001  8.126824e-001  9.139569e-003
    outer loop
      vertex  7.260089e-001  1.728738e+000  1.500000e+001
      vertex  5.808071e-001  1.382991e+000  5.500000e+001
      vertex  1.404183e+000  1.242536e+000  1.500000e+001
    endloop
  endfacet
  facet normal  5.826352e-001  8.126824e-001  9.139566e-003
    outer loop
      vertex  1.404183e+000  1.242536e+000  1.500000e+001
      vertex  5.808071e-001  1.382991e+000  5.500000e+001
      vertex  1.123346e+000  9.940287e-001  5.500000e+001
    endloop
  endfacet
  facet normal  8.775459e-001  4.794056e-001  9.139566e-003
    outer loop
      vertex  1.404183e+000  1.242536e+000  1.500000e+001
      vertex  1.123346e+000  9.940287e-001  5.500000e+001
      vertex  1.804241e+000  5.102341e-001  1.500000e+001
    endloop
  endfacet
  facet normal  8.775460e-001  4.794054e-001  9.139570e-003
    outer loop
      vertex  1.804241e+000  5.102341e-001  1.500000e+001
      vertex  1.123346e+000  9.940287e-001  5.500000e+001
      vertex  1.443393e+000  4.081873e-001  5.500000e+001
    endloop
  endfacet
  facet normal  9.986478e-001  5.117654e-002  9.139569e-003
    outer loop
      vertex  1.804241e+000  5.102341e-001  1.500000e+001
      vertex  1.443393e+000  4.081873e-001  5.500000e+001
      vertex  1.846947e+000 -3.231259e-001  1.500000e+001
    endloop
  endfacet
  facet normal  9.986477e-001  5.117657e-002  9.139567e-003
    outer loop
      vertex  1.846947e+000 -3.231259e-001  1.500000e+001
      vertex  1.443393e+000  4.081873e-001  5.500000e+001
      vertex  1.477558e+000 -2.585007e-001  5.500000e+001
    endloop
  endfacet
  facet normal  9.219552e-001 -3.871886e-001  9.139568e-003
    outer loop
      vertex  1.846947e+000 -3.231259e-001  1.500000e+001
      vertex  1.477558e+000 -2.585007e-001  5.500000e+001
      vertex  1.523843e+000 -1.092487e+000  1.500000e+001
    endloop
  endfacet
  facet normal  9.219553e-001 -3.871885e-001  9.139566e-003
    outer loop
      vertex  1.523843e+000 -1.092487e+000  1.500000e+001
      vertex  1.477558e+000 -2.585007e-001  5.500000e+001
      vertex  1.219074e+000 -8.739894e-001  5.500000e+001
    endloop
  endfacet
  facet normal  6.626582e-001 -7.488662e-001  9.139567e-003
    outer loop
      vertex  1.523843e+000 -1.092487e+000  1.500000e+001
      vertex  1.219074e+000 -8.739894e-001  5.500000e+001
      vertex  8.989229e-001 -1.645467e+000  1.500000e+001
    endloop
  endfacet
  facet normal  6.626582e-001 -7.488662e-001  9.139567e-003
    outer loop
      vertex  8.989229e-001 -1.645467e+000  1.500000e+001
      vertex  1.219074e+000 -8.739894e-001  5.500000e+001
      vertex  7.191383e-001 -1.316374e+000  5.500000e+001
    endloop
  endfacet
  facet normal  2.721135e-001 -9.622217e-001  9.139568e-003
    outer loop
      vertex  8.989229e-001 -1.645467e+000  1.500000e+001
      vertex  7.191383e-001 -1.316374e+000  5.500000e+001
      vertex  9.596003e-002 -1.872543e+000  1.500000e+001
    endloop
  endfacet
  facet normal  2.721135e-001 -9.622217e-001  9.139569e-003
    outer loop
      vertex  9.596003e-002 -1.872543e+000  1.500000e+001
      vertex  7.191383e-001 -1.316374e+000  5.500000e+001
      vertex  7.676803e-002 -1.498034e+000  5.500000e+001
    endloop
  endfacet
  facet normal -1.723266e-001 -9.849975e-001  9.139569e-003
    outer loop
      vertex  9.596003e-002 -1.872543e+000  1.500000e+001
      vertex  7.676803e-002 -1.498034e+000  5.500000e+001
      vertex -7.260089e-001 -1.728738e+000  1.500000e+001
    endloop
  endfacet
  facet normal -1.723266e-001 -9.849974e-001  9.139569e-003
    outer loop
      vertex -7.260089e-001 -1.728738e+000  1.500000e+001
      vertex  7.676803e-002 -1.498034e+000  5.500000e+001
      vertex -5.808071e-001 -1.382991e+000  5.500000e+001
    endloop
  endfacet
  facet normal -5.826353e-001 -8.126824e-001  9.139569e-003
    outer loop
      vertex -7.260089e-001 -1.728738e+000  1.500000e+001
      vertex -5.808071e-001 -1.382991e+000  5.500000e+001
      vertex -1.404183e+000 -1.242536e+000  1.500000e+001
    endloop
  endfacet
  facet normal -5.826352e-001 -8.126824e-001  9.139566e-003
    outer loop
      vertex -1.404183e+000 -1.242536e+000  1.500000e+001
      vertex -5.808071e-001 -1.382991e+000  5.500000e+001
      vertex -1.123346e+000 -9.940287e-001  5.500000e+001
    endloop
  endfacet
  facet normal -8.775459e-001 -4.794056e-001  9.139566e-003
    outer loop
      vertex -1.404183e+000 -1.242536e+000  1.500000e+001
      vertex -1.123346e+000 -9.940287e-001  5.500000e+001
      vertex -1.804241e+000 -5.102341e-001  1.500000e+001
    endloop
  endfacet
  facet normal -8.775460e-001 -4.794054e-001  9.139570e-003
    outer loop
      vertex -1.804241e+000 -5.102341e-001  1.500000e+001
      vertex -1.123346e+000 -9.940287e-001  5.500000e+001
      vertex -1.443393e+000 -4.081873e-001  5.500000e+001
    endloop
  endfacet
  facet normal -9.986478e-001 -5.117654e-002  9.139569e-003
    outer loop
      vertex -1.804241e+000 -5.102341e-001  1.500000e+001
      vertex -1.443393e+000 -4.081873e-001  5.500000e+001
      vertex -1.846947e+000  3.231259e-001  1.500000e+001
    endloop
  endfacet
  facet normal -9.986477e-001 -5.117657e-002  9.139567e-003
    outer loop
      vertex -1.846947e+000  3.231259e-001  1.500000e+001
      vertex -1.443393e+000 -4.081873e-001  5.500000e+001
      vertex -1.477558e+000  2.585007e-001  5.500000e+001
    endloop
  endfacet
  facet normal -9.219552e-001  3.871886e-001  9.139568e-003
    outer loop
      vertex -1.846947e+000  3.231259e-001  1.500000e+001
      vertex -1.477558e+000  2.585007e-001  5.500000e+001
      vertex -1.523843e+000  1.092487e+000  1.500000e+001
    endloop
  endfacet
  facet normal -9.219553e-001  3.871885e-001  9.139566e-003
    outer loop
      vertex -1.523843e+000  1.092487e+000  1.500000e+001
      vertex -1.477558e+000  2.585007e-001  5.500000e+001
      vertex -1.219074e+000  8.739894e-001  5.500000e+001
    endloop
  endfacet
  facet normal -6.626582e-001  7.488662e-001  9.139567e-003
    outer loop
      vertex -1.523843e+000  1.092487e+000  1.500000e+001
      vertex -1.219074e+000  8.739894e-001  5.500000e+001
      vertex -8.989229e-001  1.645467e+000  1.500000e+001
    endloop
  endfacet
  facet normal -6.626582e-001  7.488662e-001  9.139567e-003
    outer loop
      vertex -8.989229e-001  1.645467e+000  1.500000e+001
      vertex -1.219074e+000  8.739894e-001  5.500000e+001
      vertex -7.191383e-001  1.316374e+000  5.500000e+001
    endloop
  endfacet
  facet normal  0.000000e+000  0.000000e+000  1.000000e+000
    outer loop
      vertex -7.191383e-001  1.316374e+000  5.500000e+001
      vertex  5.808071e-001  1.382991e+000  5.500000e+001
      vertex -7.676803e-002  1.498034e+000  5.500000e+001
    endloop
  endfacet
  facet normal  -0.000000e+000  0.000000e+000  1.000000e+000
    outer loop
      vertex  5.808071e-001  1.382991e+000  5.500000e+001
      vertex -7.191383e-001  1.316374e+000  5.500000e+001
      vertex  1.123346e+000  9.940287e-001  5.500000e+001
    endloop
  endfacet
  facet normal  0.000000e+000  0.000000e+000  1.000000e+000
    outer loop
      vertex  1.123346e+000  9.940287e-001  5.500000e+001
      vertex -7.191383e-001  1.316374e+000  5.500000e+001
      vertex -1.219074e+000  8.739894e-001  5.500000e+001
    endloop
  endfacet
  facet normal  -0.000000e+000  0.000000e+000  1.000000e+000
    outer loop
      vertex  1.123346e+000  9.940287e-001  5.500000e+001
      vertex -1.219074e+000  8.739894e-001  5.500000e+001
      vertex  1.443393e+000  4.081873e-001  5.500000e+001
    endloop
  endfacet
  facet normal  0.000000e+000  0.000000e+000  1.000000e+000
    outer loop
      vertex  1.443393e+000  4.081873e-001  5.500000e+001
      vertex -1.219074e+000  8.739894e-001  5.500000e+001
      vertex -1.477558e+000  2.585007e-001  5.500000e+001
    endloop
  endfacet
  facet normal  -0.000000e+000  0.000000e+000  1.000000e+000
    outer loop
      vertex  1.443393e+000  4.081873e-001  5.500000e+001
      vertex -1.477558e+000  2.585007e-001  5.500000e+001
      vertex  1.477558e+000 -2.585007e-001  5.500000e+001
    endloop
  endfacet
  facet normal  0.000000e+000  0.000000e+000  1.000000e+000
    outer loop
      vertex  1.477558e+000 -2.585007e-001  5.500000e+001
      vertex -1.477558e+000  2.585007e-001  5.500000e+001
      vertex -1.443393e+000 -4.081873e-001  5.500000e+001
    endloop
  endfacet
  facet normal  -0.000000e+000  0.000000e+000  1.000000e+000
    outer loop
      vertex  1.477558e+000 -2.585007e-001  5.500000e+001
      vertex -1.443393e+000 -4.081873e-001  5.500000e+001
      vertex  1.219074e+000 -8.739894e-001  5.500000e+001
    endloop
  endfacet
  facet normal  0.000000e+000  0.000000e+000  1.000000e+000
    outer loop
      vertex  1.219074e+000 -8.739894e-001  5.500000e+001
      vertex -1.443393e+000 -4.081873e-001  5.500000e+001
      vertex -1.123346e+000 -9.940287e-001  5.500000e+001
    endloop
  endfacet
  facet normal  -0.000000e+000  0.000000e+000  1.000000e+000
    outer loop
      vertex  1.219074e+000 -8.739894e-001  5.500000e+001
      vertex -1.123346e+000 -9.940287e-001  5.500000e+001
      vertex  7.191383e-001 -1.316374e+000  5.500000e+001
    endloop
  endfacet
  facet normal  0.000000e+000  0.000000e+000  1.000000e+000
    outer loop
      vertex  7.191383e-001 -1.316374e+000  5.500000e+001
      vertex -1.123346e+000 -9.940287e-001  5.500000e+001
      vertex -5.808071e-001 -1.382991e+000  5.500000e+001
    endloop
  endfacet
  facet normal  -0.000000e+000  0.000000e+000  1.000000e+000
    outer loop
      vertex  7.191383e-001 -1.316374e+000  5.500000e+001
      vertex -5.808071e-001 -1.382991e+000  5.500000e+001
      vertex  7.676803e-002 -1.498034e+000  5.500000e+001
    endloop
  endfacet
  facet normal  0.000000e+000  -0.000000e+000  1.000000e+000
    outer loop
      vertex  1.215805e+000  1.524571e+000  1.400000e+000
      vertex  1.756889e+000  8.460733e-001  1.400000e+000
      vertex  2.537170e+000  9.234544e-001  1.400000e+000
    endloop
  endfacet
  facet normal  0.000000e+000  -0.000000e+000  1.000000e+000
    outer loop
      vertex  4.339158e-001 -1.901109e+000  1.400000e+000
      vertex  1.350000e+000 -2.338269e+000  1.400000e+000
      vertex  2.068320e+000 -1.735527e+000  1.400000e+000
    endloop
  endfacet
  facet normal  0.000000e+000  0.000000e+000  1.000000e+000
    outer loop
      vertex  4.688501e-001 -2.658981e+000  1.400000e+000
      vertex  1.350000e+000 -2.338269e+000  1.400000e+000
      vertex -4.688501e-001 -2.658981e+000  1.400000e+000
    endloop
  endfacet
  facet normal  0.000000e+000  0.000000e+000  1.000000e+000
    outer loop
      vertex -4.688501e-001 -2.658981e+000  1.400000e+000
      vertex  1.350000e+000 -2.338269e+000  1.400000e+000
      vertex  4.339158e-001 -1.901109e+000  1.400000e+000
    endloop
  endfacet
  facet normal  0.000000e+000  0.000000e+000  1.000000e+000
    outer loop
      vertex -4.688501e-001 -2.658981e+000  1.400000e+000
      vertex  4.339158e-001 -1.901109e+000  1.400000e+000
      vertex -1.350000e+000 -2.338269e+000  1.400000e+000
    endloop
  endfacet
  facet normal  0.000000e+000  0.000000e+000  1.000000e+000
    outer loop
      vertex -1.350000e+000 -2.338269e+000  1.400000e+000
      vertex  4.339158e-001 -1.901109e+000  1.400000e+000
      vertex -4.339158e-001 -1.901109e+000  1.400000e+000
    endloop
  endfacet
  facet normal  0.000000e+000  0.000000e+000  1.000000e+000
    outer loop
      vertex -1.350000e+000 -2.338269e+000  1.400000e+000
      vertex -4.339158e-001 -1.901109e+000  1.400000e+000
      vertex -2.068320e+000 -1.735527e+000  1.400000e+000
    endloop
  endfacet
  facet normal  -0.000000e+000  0.000000e+000  9.999999e-001
    outer loop
      vertex -2.068320e+000 -1.735527e+000  1.400000e+000
      vertex -4.339158e-001 -1.901109e+000  1.400000e+000
      vertex -1.215805e+000 -1.524571e+000  1.400000e+000
    endloop
  endfacet
  facet normal  0.000000e+000  0.000000e+000  1.000000e+000
    outer loop
      vertex  1.350000e+000  2.338269e+000  1.400000e+000
      vertex  4.688501e-001  2.658981e+000  1.400000e+000
      vertex  4.339158e-001  1.901109e+000  1.400000e+000
    endloop
  endfacet
  facet normal  0.000000e+000  -0.000000e+000  1.000000e+000
    outer loop
      vertex  4.339158e-001  1.901109e+000  1.400000e+000
      vertex  4.688501e-001  2.658981e+000  1.400000e+000
      vertex -4.688501e-001  2.658981e+000  1.400000e+000
    endloop
  endfacet
  facet normal  0.000000e+000  0.000000e+000  1.000000e+000
    outer loop
      vertex  4.339158e-001  1.901109e+000  1.400000e+000
      vertex -4.688501e-001  2.658981e+000  1.400000e+000
      vertex -4.339158e-001  1.901109e+000  1.400000e+000
    endloop
  endfacet
  facet normal  0.000000e+000  0.000000e+000  1.000000e+000
    outer loop
      vertex -4.339158e-001  1.901109e+000  1.400000e+000
      vertex -4.688501e-001  2.658981e+000  1.400000e+000
      vertex -1.350000e+000  2.338269e+000  1.400000e+000
    endloop
  endfacet
  facet normal  0.000000e+000  0.000000e+000  1.000000e+000
    outer loop
      vertex -4.339158e-001  1.901109e+000  1.400000e+000
      vertex -1.350000e+000  2.338269e+000  1.400000e+000
      vertex -2.068320e+000  1.735527e+000  1.400000e+000
    endloop
  endfacet
  facet normal  -0.000000e+000  0.000000e+000  9.999999e-001
    outer loop
      vertex -4.339158e-001  1.901109e+000  1.400000e+000
      vertex -2.068320e+000  1.735527e+000  1.400000e+000
      vertex -1.215805e+000  1.524571e+000  1.400000e+000
    endloop
  endfacet
  facet normal  0.000000e+000  0.000000e+000  1.000000e+000
    outer loop
      vertex -1.215805e+000  1.524571e+000  1.400000e+000
      vertex -2.068320e+000  1.735527e+000  1.400000e+000
      vertex -2.537170e+000  9.234544e-001  1.400000e+000
    endloop
  endfacet
  facet normal  -0.000000e+000  0.000000e+000  1.000000e+000
    outer loop
      vertex -1.215805e+000  1.524571e+000  1.400000e+000
      vertex -2.537170e+000  9.234544e-001  1.400000e+000
      vertex -1.756889e+000  8.460733e-001  1.400000e+000
    endloop
  endfacet
  facet normal  0.000000e+000  0.000000e+000  1.000000e+000
    outer loop
      vertex -1.756889e+000  8.460733e-001  1.400000e+000
      vertex -2.537170e+000  9.234544e-001  1.400000e+000
      vertex -1.950000e+000  2.388061e-016  1.400000e+000
    endloop
  endfacet
  facet normal  0.000000e+000  0.000000e+000  1.000000e+000
    outer loop
      vertex -1.950000e+000  2.388061e-016  1.400000e+000
      vertex -2.537170e+000  9.234544e-001  1.400000e+000
      vertex -2.700000e+000  3.306546e-016  1.400000e+000
    endloop
  endfacet
  facet normal  0.000000e+000  0.000000e+000  1.000000e+000
    outer loop
      vertex -1.950000e+000  2.388061e-016  1.400000e+000
      vertex -2.700000e+000  3.306546e-016  1.400000e+000
      vertex -1.756889e+000 -8.460733e-001  1.400000e+000
    endloop
  endfacet
  facet normal  0.000000e+000  0.000000e+000  1.000000e+000
    outer loop
      vertex -1.756889e+000 -8.460733e-001  1.400000e+000
      vertex -2.700000e+000  3.306546e-016  1.400000e+000
      vertex -2.537170e+000 -9.234544e-001  1.400000e+000
    endloop
  endfacet
  facet normal  -0.000000e+000  0.000000e+000  1.000000e+000
    outer loop
      vertex -1.756889e+000 -8.460733e-001  1.400000e+000
      vertex -2.537170e+000 -9.234544e-001  1.400000e+000
      vertex -1.215805e+000 -1.524571e+000  1.400000e+000
    endloop
  endfacet
  facet normal  0.000000e+000  0.000000e+000  1.000000e+000
    outer loop
      vertex -1.215805e+000 -1.524571e+000  1.400000e+000
      vertex -2.537170e+000 -9.234544e-001  1.400000e+000
      vertex -2.068320e+000 -1.735527e+000  1.400000e+000
    endloop
  endfacet
  facet normal  0.000000e+000  0.000000e+000  1.000000e+000
    outer loop
      vertex  1.215805e+000  1.524571e+000  1.400000e+000
      vertex  2.537170e+000  9.234544e-001  1.400000e+000
      vertex  4.339158e-001  1.901109e+000  1.400000e+000
    endloop
  endfacet
  facet normal  0.000000e+000  0.000000e+000  1.000000e+000
    outer loop
      vertex  4.339158e-001  1.901109e+000  1.400000e+000
      vertex  2.537170e+000  9.234544e-001  1.400000e+000
      vertex  2.068320e+000  1.735527e+000  1.400000e+000
    endloop
  endfacet
  facet normal  0.000000e+000  0.000000e+000  9.999999e-001
    outer loop
      vertex  4.339158e-001  1.901109e+000  1.400000e+000
      vertex  2.068320e+000  1.735527e+000  1.400000e+000
      vertex  1.350000e+000  2.338269e+000  1.400000e+000
    endloop
  endfacet
  facet normal  -0.000000e+000  0.000000e+000  1.000000e+000
    outer loop
      vertex  2.537170e+000  9.234544e-001  1.400000e+000
      vertex  1.756889e+000  8.460733e-001  1.400000e+000
      vertex  2.700000e+000  0.000000e+000  1.400000e+000
    endloop
  endfacet
  facet normal  0.000000e+000  0.000000e+000  1.000000e+000
    outer loop
      vertex  2.700000e+000  0.000000e+000  1.400000e+000
      vertex  1.756889e+000  8.460733e-001  1.400000e+000
      vertex  1.950000e+000  0.000000e+000  1.400000e+000
    endloop
  endfacet
  facet normal  -0.000000e+000  0.000000e+000  1.000000e+000
    outer loop
      vertex  2.700000e+000  0.000000e+000  1.400000e+000
      vertex  1.950000e+000  0.000000e+000  1.400000e+000
      vertex  2.537170e+000 -9.234544e-001  1.400000e+000
    endloop
  endfacet
  facet normal  0.000000e+000  0.000000e+000  1.000000e+000
    outer loop
      vertex  2.537170e+000 -9.234544e-001  1.400000e+000
      vertex  1.950000e+000  0.000000e+000  1.400000e+000
      vertex  1.756889e+000 -8.460733e-001  1.400000e+000
    endloop
  endfacet
  facet normal  0.000000e+000  0.000000e+000  1.000000e+000
    outer loop
      vertex  2.537170e+000 -9.234544e-001  1.400000e+000
      vertex  1.756889e+000 -8.460733e-001  1.400000e+000
      vertex  2.068320e+000 -1.735527e+000  1.400000e+000
    endloop
  endfacet
  facet normal  0.000000e+000  0.000000e+000  9.999999e-001
    outer loop
      vertex  2.068320e+000 -1.735527e+000  1.400000e+000
      vertex  1.756889e+000 -8.460733e-001  1.400000e+000
      vertex  1.215805e+000 -1.524571e+000  1.400000e+000
    endloop
  endfacet
  facet normal  0.000000e+000  0.000000e+000  9.999999e-001
    outer loop
      vertex  2.068320e+000 -1.735527e+000  1.400000e+000
      vertex  1.215805e+000 -1.524571e+000  1.400000e+000
      vertex  4.339158e-001 -1.901109e+000  1.400000e+000
    endloop
  endfacet
  facet normal  9.749280e-001 -2.225209e-001  0.000000e+000
    outer loop
      vertex  1.950000e+000  0.000000e+000  1.400000e+000
      vertex  1.950000e+000  0.000000e+000  1.500000e+001
      vertex  1.756889e+000 -8.460733e-001  1.400000e+000
    endloop
  endfacet
  facet normal  9.749280e-001 -2.225209e-001  0.000000e+000
    outer loop
      vertex  1.756889e+000 -8.460733e-001  1.400000e+000
      vertex  1.950000e+000  0.000000e+000  1.500000e+001
      vertex  1.756889e+000 -8.460733e-001  1.500000e+001
    endloop
  endfacet
  facet normal  7.818315e-001 -6.234897e-001  0.000000e+000
    outer loop
      vertex  1.756889e+000 -8.460733e-001  1.400000e+000
      vertex  1.756889e+000 -8.460733e-001  1.500000e+001
      vertex  1.215805e+000 -1.524571e+000  1.400000e+000
    endloop
  endfacet
  facet normal  7.818315e-001 -6.234897e-001  0.000000e+000
    outer loop
      vertex  1.215805e+000 -1.524571e+000  1.400000e+000
      vertex  1.756889e+000 -8.460733e-001  1.500000e+001
      vertex  1.215805e+000 -1.524571e+000  1.500000e+001
    endloop
  endfacet
  facet normal  4.338838e-001 -9.009689e-001  0.000000e+000
    outer loop
      vertex  1.215805e+000 -1.524571e+000  1.400000e+000
      vertex  1.215805e+000 -1.524571e+000  1.500000e+001
      vertex  4.339158e-001 -1.901109e+000  1.400000e+000
    endloop
  endfacet
  facet normal  4.338838e-001 -9.009689e-001  0.000000e+000
    outer loop
      vertex  4.339158e-001 -1.901109e+000  1.400000e+000
      vertex  1.215805e+000 -1.524571e+000  1.500000e+001
      vertex  4.339158e-001 -1.901109e+000  1.500000e+001
    endloop
  endfacet
  facet normal  0.000000e+000 -1.000000e+000  -0.000000e+000
    outer loop
      vertex  4.339158e-001 -1.901109e+000  1.400000e+000
      vertex  4.339158e-001 -1.901109e+000  1.500000e+001
      vertex -4.339158e-001 -1.901109e+000  1.400000e+000
    endloop
  endfacet
  facet normal  0.000000e+000 -1.000000e+000  0.000000e+000
    outer loop
      vertex -4.339158e-001 -1.901109e+000  1.400000e+000
      vertex  4.339158e-001 -1.901109e+000  1.500000e+001
      vertex -4.339158e-001 -1.901109e+000  1.500000e+001
    endloop
  endfacet
  facet normal -4.338838e-001 -9.009689e-001  -0.000000e+000
    outer loop
      vertex -4.339158e-001 -1.901109e+000  1.400000e+000
      vertex -4.339158e-001 -1.901109e+000  1.500000e+001
      vertex -1.215805e+000 -1.524571e+000  1.400000e+000
    endloop
  endfacet
  facet normal -4.338838e-001 -9.009689e-001  0.000000e+000
    outer loop
      vertex -1.215805e+000 -1.524571e+000  1.400000e+000
      vertex -4.339158e-001 -1.901109e+000  1.500000e+001
      vertex -1.215805e+000 -1.524571e+000  1.500000e+001
    endloop
  endfacet
  facet normal -7.818315e-001 -6.234897e-001  -0.000000e+000
    outer loop
      vertex -1.215805e+000 -1.524571e+000  1.400000e+000
      vertex -1.215805e+000 -1.524571e+000  1.500000e+001
      vertex -1.756889e+000 -8.460733e-001  1.400000e+000
    endloop
  endfacet
  facet normal -7.818315e-001 -6.234897e-001  0.000000e+000
    outer loop
      vertex -1.756889e+000 -8.460733e-001  1.400000e+000
      vertex -1.215805e+000 -1.524571e+000  1.500000e+001
      vertex -1.756889e+000 -8.460733e-001  1.500000e+001
    endloop
  endfacet
  facet normal -9.749280e-001 -2.225209e-001  -0.000000e+000
    outer loop
      vertex -1.756889e+000 -8.460733e-001  1.400000e+000
      vertex -1.756889e+000 -8.460733e-001  1.500000e+001
      vertex -1.950000e+000  2.388061e-016  1.400000e+000
    endloop
  endfacet
  facet normal -9.749280e-001 -2.225209e-001  0.000000e+000
    outer loop
      vertex -1.950000e+000  2.388061e-016  1.400000e+000
      vertex -1.756889e+000 -8.460733e-001  1.500000e+001
      vertex -1.950000e+000  2.388061e-016  1.500000e+001
    endloop
  endfacet
  facet normal -9.749280e-001  2.225209e-001  0.000000e+000
    outer loop
      vertex -1.950000e+000  2.388061e-016  1.400000e+000
      vertex -1.950000e+000  2.388061e-016  1.500000e+001
      vertex -1.756889e+000  8.460733e-001  1.400000e+000
    endloop
  endfacet
  facet normal -9.749280e-001  2.225209e-001  0.000000e+000
    outer loop
      vertex -1.756889e+000  8.460733e-001  1.400000e+000
      vertex -1.950000e+000  2.388061e-016  1.500000e+001
      vertex -1.756889e+000  8.460733e-001  1.500000e+001
    endloop
  endfacet
  facet normal -7.818315e-001  6.234897e-001  0.000000e+000
    outer loop
      vertex -1.756889e+000  8.460733e-001  1.400000e+000
      vertex -1.756889e+000  8.460733e-001  1.500000e+001
      vertex -1.215805e+000  1.524571e+000  1.400000e+000
    endloop
  endfacet
  facet normal -7.818315e-001  6.234897e-001  0.000000e+000
    outer loop
      vertex -1.215805e+000  1.524571e+000  1.400000e+000
      vertex -1.756889e+000  8.460733e-001  1.500000e+001
      vertex -1.215805e+000  1.524571e+000  1.500000e+001
    endloop
  endfacet
  facet normal -4.338838e-001  9.009689e-001  0.000000e+000
    outer loop
      vertex -1.215805e+000  1.524571e+000  1.400000e+000
      vertex -1.215805e+000  1.524571e+000  1.500000e+001
      vertex -4.339158e-001  1.901109e+000  1.400000e+000
    endloop
  endfacet
  facet normal -4.338838e-001  9.009689e-001  0.000000e+000
    outer loop
      vertex -4.339158e-001  1.901109e+000  1.400000e+000
      vertex -1.215805e+000  1.524571e+000  1.500000e+001
      vertex -4.339158e-001  1.901109e+000  1.500000e+001
    endloop
  endfacet
  facet normal  0.000000e+000  1.000000e+000  0.000000e+000
    outer loop
      vertex -4.339158e-001  1.901109e+000  1.400000e+000
      vertex -4.339158e-001  1.901109e+000  1.500000e+001
      vertex  4.339158e-001  1.901109e+000  1.400000e+000
    endloop
  endfacet
  facet normal  0.000000e+000  1.000000e+000  -0.000000e+000
    outer loop
      vertex  4.339158e-001  1.901109e+000  1.400000e+000
      vertex -4.339158e-001  1.901109e+000  1.500000e+001
      vertex  4.339158e-001  1.901109e+000  1.500000e+001
    endloop
  endfacet
  facet normal  4.338838e-001  9.009689e-001  0.000000e+000
    outer loop
      vertex  4.339158e-001  1.901109e+000  1.400000e+000
      vertex  4.339158e-001  1.901109e+000  1.500000e+001
      vertex  1.215805e+000  1.524571e+000  1.400000e+000
    endloop
  endfacet
  facet normal  4.338838e-001  9.009689e-001  -0.000000e+000
    outer loop
      vertex  1.215805e+000  1.524571e+000  1.400000e+000
      vertex  4.339158e-001  1.901109e+000  1.500000e+001
      vertex  1.215805e+000  1.524571e+000  1.500000e+001
    endloop
  endfacet
  facet normal  7.818315e-001  6.234897e-001  0.000000e+000
    outer loop
      vertex  1.215805e+000  1.524571e+000  1.400000e+000
      vertex  1.215805e+000  1.524571e+000  1.500000e+001
      vertex  1.756889e+000  8.460733e-001  1.400000e+000
    endloop
  endfacet
  facet normal  7.818315e-001  6.234897e-001  -0.000000e+000
    outer loop
      vertex  1.756889e+000  8.460733e-001  1.400000e+000
      vertex  1.215805e+000  1.524571e+000  1.500000e+001
      vertex  1.756889e+000  8.460733e-001  1.500000e+001
    endloop
  endfacet
  facet normal  9.749280e-001  2.225209e-001  0.000000e+000
    outer loop
      vertex  1.756889e+000  8.460733e-001  1.400000e+000
      vertex  1.756889e+000  8.460733e-001  1.500000e+001
      vertex  1.950000e+000  0.000000e+000  1.400000e+000
    endloop
  endfacet
  facet normal  9.749280e-001  2.225209e-001  -0.000000e+000
    outer loop
      vertex  1.950000e+000  0.000000e+000  1.400000e+000
      vertex  1.756889e+000  8.460733e-001  1.500000e+001
      vertex  1.950000e+000  0.000000e+000  1.500000e+001
    endloop
  endfacet
  facet normal  0.000000e+000  0.000000e+000 -1.000000e+000
    outer loop
      vertex  2.700000e+000  0.000000e+000  0.000000e+000
      vertex -2.537170e+000  9.234544e-001  0.000000e+000
      vertex  2.537170e+000  9.234544e-001  0.000000e+000
    endloop
  endfacet
  facet normal  0.000000e+000  0.000000e+000 -1.000000e+000
    outer loop
      vertex  2.537170e+000  9.234544e-001  0.000000e+000
      vertex -2.537170e+000  9.234544e-001  0.000000e+000
      vertex -2.068320e+000  1.735527e+000  0.000000e+000
    endloop
  endfacet
  facet normal  0.000000e+000  0.000000e+000 -1.000000e+000
    outer loop
      vertex  2.537170e+000  9.234544e-001  0.000000e+000
      vertex -2.068320e+000  1.735527e+000  0.000000e+000
      vertex  2.068320e+000  1.735527e+000  0.000000e+000
    endloop
  endfacet
  facet normal  0.000000e+000  0.000000e+000 -1.000000e+000
    outer loop
      vertex  2.068320e+000  1.735527e+000  0.000000e+000
      vertex -2.068320e+000  1.735527e+000  0.000000e+000
      vertex -1.350000e+000  2.338269e+000  0.000000e+000
    endloop
  endfacet
  facet normal  0.000000e+000  0.000000e+000 -1.000000e+000
    outer loop
      vertex  2.068320e+000  1.735527e+000  0.000000e+000
      vertex -1.350000e+000  2.338269e+000  0.000000e+000
      vertex  1.350000e+000  2.338269e+000  0.000000e+000
    endloop
  endfacet
  facet normal  0.000000e+000  0.000000e+000 -9.999999e-001
    outer loop
      vertex  1.350000e+000  2.338269e+000  0.000000e+000
      vertex -1.350000e+000  2.338269e+000  0.000000e+000
      vertex -4.688501e-001  2.658981e+000  0.000000e+000
    endloop
  endfacet
  facet normal  0.000000e+000  0.000000e+000 -1.000000e+000
    outer loop
      vertex  1.350000e+000  2.338269e+000  0.000000e+000
      vertex -4.688501e-001  2.658981e+000  0.000000e+000
      vertex  4.688501e-001  2.658981e+000  0.000000e+000
    endloop
  endfacet
  facet normal  0.000000e+000  0.000000e+000 -1.000000e+000
    outer loop
      vertex -2.537170e+000  9.234544e-001  0.000000e+000
      vertex  2.700000e+000  0.000000e+000  0.000000e+000
      vertex -2.700000e+000  3.306546e-016  0.000000e+000
    endloop
  endfacet
  facet normal  0.000000e+000  0.000000e+000 -1.000000e+000
    outer loop
      vertex -2.700000e+000  3.306546e-016  0.000000e+000
      vertex  2.700000e+000  0.000000e+000  0.000000e+000
      vertex  2.537170e+000 -9.234544e-001  0.000000e+000
    endloop
  endfacet
  facet normal  0.000000e+000  0.000000e+000 -1.000000e+000
    outer loop
      vertex -2.700000e+000  3.306546e-016  0.000000e+000
      vertex  2.537170e+000 -9.234544e-001  0.000000e+000
      vertex -2.537170e+000 -9.234544e-001  0.000000e+000
    endloop
  endfacet
  facet normal  0.000000e+000  0.000000e+000 -1.000000e+000
    outer loop
      vertex -2.537170e+000 -9.234544e-001  0.000000e+000
      vertex  2.537170e+000 -9.234544e-001  0.000000e+000
      vertex  2.068320e+000 -1.735527e+000  0.000000e+000
    endloop
  endfacet
  facet normal  0.000000e+000  0.000000e+000 -1.000000e+000
    outer loop
      vertex -2.537170e+000 -9.234544e-001  0.000000e+000
      vertex  2.068320e+000 -1.735527e+000  0.000000e+000
      vertex -2.068320e+000 -1.735527e+000  0.000000e+000
    endloop
  endfacet
  facet normal  0.000000e+000  0.000000e+000 -1.000000e+000
    outer loop
      vertex -2.068320e+000 -1.735527e+000  0.000000e+000
      vertex  2.068320e+000 -1.735527e+000  0.000000e+000
      vertex  1.350000e+000 -2.338269e+000  0.000000e+000
    endloop
  endfacet
  facet normal  0.000000e+000  0.000000e+000 -1.000000e+000
    outer loop
      vertex -2.068320e+000 -1.735527e+000  0.000000e+000
      vertex  1.350000e+000 -2.338269e+000  0.000000e+000
      vertex -1.350000e+000 -2.338269e+000  0.000000e+000
    endloop
  endfacet
  facet normal  0.000000e+000  0.000000e+000 -9.999999e-001
    outer loop
      vertex -1.350000e+000 -2.338269e+000  0.000000e+000
      vertex  1.350000e+000 -2.338269e+000  0.000000e+000
      vertex  4.688501e-001 -2.658981e+000  0.000000e+000
    endloop
  endfacet
  facet normal  0.000000e+000  0.000000e+000 -1.000000e+000
    outer loop
      vertex -1.350000e+000 -2.338269e+000  0.000000e+000
      vertex  4.688501e-001 -2.658981e+000  0.000000e+000
      vertex -4.688501e-001 -2.658981e+000  0.000000e+000
    endloop
  endfacet
  facet normal  9.848078e-001 -1.736481e-001  0.000000e+000
    outer loop
      vertex  2.700000e+000  0.000000e+000  0.000000e+000
      vertex  2.700000e+000  0.000000e+000  1.400000e+000
      vertex  2.537170e+000 -9.234544e-001  0.000000e+000
    endloop
  endfacet
  facet normal  9.848078e-001 -1.736481e-001  0.000000e+000
    outer loop
      vertex  2.537170e+000 -9.234544e-001  0.000000e+000
      vertex  2.700000e+000  0.000000e+000  1.400000e+000
      vertex  2.537170e+000 -9.234544e-001  1.400000e+000
    endloop
  endfacet
  facet normal  8.660254e-001 -5.000001e-001  0.000000e+000
    outer loop
      vertex  2.537170e+000 -9.234544e-001  0.000000e+000
      vertex  2.537170e+000 -9.234544e-001  1.400000e+000
      vertex  2.068320e+000 -1.735527e+000  0.000000e+000
    endloop
  endfacet
  facet normal  8.660254e-001 -5.000001e-001  0.000000e+000
    outer loop
      vertex  2.068320e+000 -1.735527e+000  0.000000e+000
      vertex  2.537170e+000 -9.234544e-001  1.400000e+000
      vertex  2.068320e+000 -1.735527e+000  1.400000e+000
    endloop
  endfacet
  facet normal  6.427876e-001 -7.660445e-001  0.000000e+000
    outer loop
      vertex  2.068320e+000 -1.735527e+000  0.000000e+000
      vertex  2.068320e+000 -1.735527e+000  1.400000e+000
      vertex  1.350000e+000 -2.338269e+000  0.000000e+000
    endloop
  endfacet
  facet normal  6.427876e-001 -7.660445e-001  0.000000e+000
    outer loop
      vertex  1.350000e+000 -2.338269e+000  0.000000e+000
      vertex  2.068320e+000 -1.735527e+000  1.400000e+000
      vertex  1.350000e+000 -2.338269e+000  1.400000e+000
    endloop
  endfacet
  facet normal  3.420201e-001 -9.396926e-001  0.000000e+000
    outer loop
      vertex  1.350000e+000 -2.338269e+000  0.000000e+000
      vertex  1.350000e+000 -2.338269e+000  1.400000e+000
      vertex  4.688501e-001 -2.658981e+000  0.000000e+000
    endloop
  endfacet
  facet normal  3.420201e-001 -9.396926e-001  0.000000e+000
    outer loop
      vertex  4.688501e-001 -2.658981e+000  0.000000e+000
      vertex  1.350000e+000 -2.338269e+000  1.400000e+000
      vertex  4.688501e-001 -2.658981e+000  1.400000e+000
    endloop
  endfacet
  facet normal  0.000000e+000 -1.000000e+000  -0.000000e+000
    outer loop
      vertex  4.688501e-001 -2.658981e+000  0.000000e+000
      vertex  4.688501e-001 -2.658981e+000  1.400000e+000
      vertex -4.688501e-001 -2.658981e+000  0.000000e+000
    endloop
  endfacet
  facet normal  0.000000e+000 -1.000000e+000  0.000000e+000
    outer loop
      vertex -4.688501e-001 -2.658981e+000  0.000000e+000
      vertex  4.688501e-001 -2.658981e+000  1.400000e+000
      vertex -4.688501e-001 -2.658981e+000  1.400000e+000
    endloop
  endfacet
  facet normal -3.420201e-001 -9.396926e-001  -0.000000e+000
    outer loop
      vertex -4.688501e-001 -2.658981e+000  0.000000e+000
      vertex -4.688501e-001 -2.658981e+000  1.400000e+000
      vertex -1.350000e+000 -2.338269e+000  0.000000e+000
    endloop
  endfacet
  facet normal -3.420201e-001 -9.396926e-001  0.000000e+000
    outer loop
      vertex -1.350000e+000 -2.338269e+000  0.000000e+000
      vertex -4.688501e-001 -2.658981e+000  1.400000e+000
      vertex -1.350000e+000 -2.338269e+000  1.400000e+000
    endloop
  endfacet
  facet normal -6.427876e-001 -7.660445e-001  -0.000000e+000
    outer loop
      vertex -1.350000e+000 -2.338269e+000  0.000000e+000
      vertex -1.350000e+000 -2.338269e+000  1.400000e+000
      vertex -2.068320e+000 -1.735527e+000  0.000000e+000
    endloop
  endfacet
  facet normal -6.427876e-001 -7.660445e-001  0.000000e+000
    outer loop
      vertex -2.068320e+000 -1.735527e+000  0.000000e+000
      vertex -1.350000e+000 -2.338269e+000  1.400000e+000
      vertex -2.068320e+000 -1.735527e+000  1.400000e+000
    endloop
  endfacet
  facet normal -8.660254e-001 -5.000001e-001  -0.000000e+000
    outer loop
      vertex -2.068320e+000 -1.735527e+000  0.000000e+000
      vertex -2.068320e+000 -1.735527e+000  1.400000e+000
      vertex -2.537170e+000 -9.234544e-001  0.000000e+000
    endloop
  endfacet
  facet normal -8.660254e-001 -5.000001e-001  0.000000e+000
    outer loop
      vertex -2.537170e+000 -9.234544e-001  0.000000e+000
      vertex -2.068320e+000 -1.735527e+000  1.400000e+000
      vertex -2.537170e+000 -9.234544e-001  1.400000e+000
    endloop
  endfacet
  facet normal -9.848078e-001 -1.736481e-001  -0.000000e+000
    outer loop
      vertex -2.537170e+000 -9.234544e-001  0.000000e+000
      vertex -2.537170e+000 -9.234544e-001  1.400000e+000
      vertex -2.700000e+000  3.306546e-016  0.000000e+000
    endloop
  endfacet
  facet normal -9.848078e-001 -1.736481e-001  0.000000e+000
    outer loop
      vertex -2.700000e+000  3.306546e-016  0.000000e+000
      vertex -2.537170e+000 -9.234544e-001  1.400000e+000
      vertex -2.700000e+000  3.306546e-016  1.400000e+000
    endloop
  endfacet
  facet normal -9.848078e-001  1.736481e-001  0.000000e+000
    outer loop
      vertex -2.700000e+000  3.306546e-016  0.000000e+000
      vertex -2.700000e+000  3.306546e-016  1.400000e+000
      vertex -2.537170e+000  9.234544e-001  0.000000e+000
    endloop
  endfacet
  facet normal -9.848078e-001  1.736481e-001  0.000000e+000
    outer loop
      vertex -2.537170e+000  9.234544e-001  0.000000e+000
      vertex -2.700000e+000  3.306546e-016  1.400000e+000
      vertex -2.537170e+000  9.234544e-001  1.400000e+000
    endloop
  endfacet
  facet normal -8.660254e-001  5.000001e-001  0.000000e+000
    outer loop
      vertex -2.537170e+000  9.234544e-001  0.000000e+000
      vertex -2.537170e+000  9.234544e-001  1.400000e+000
      vertex -2.068320e+000  1.735527e+000  0.000000e+000
    endloop
  endfacet
  facet normal -8.660254e-001  5.000001e-001  0.000000e+000
    outer loop
      vertex -2.068320e+000  1.735527e+000  0.000000e+000
      vertex -2.537170e+000  9.234544e-001  1.400000e+000
      vertex -2.068320e+000  1.735527e+000  1.400000e+000
    endloop
  endfacet
  facet normal -6.427876e-001  7.660445e-001  0.000000e+000
    outer loop
      vertex -2.068320e+000  1.735527e+000  0.000000e+000
      vertex -2.068320e+000  1.735527e+000  1.400000e+000
      vertex -1.350000e+000  2.338269e+000  0.000000e+000
    endloop
  endfacet
  facet normal -6.427876e-001  7.660445e-001  0.000000e+000
    outer loop
      vertex -1.350000e+000  2.338269e+000  0.000000e+000
      vertex -2.068320e+000  1.735527e+000  1.400000e+000
      vertex -1.350000e+000  2.338269e+000  1.400000e+000
    endloop
  endfacet
  facet normal -3.420201e-001  9.396926e-001  0.000000e+000
    outer loop
      vertex -1.350000e+000  2.338269e+000  0.000000e+000
      vertex -1.350000e+000  2.338269e+000  1.400000e+000
      vertex -4.688501e-001  2.658981e+000  0.000000e+000
    endloop
  endfacet
  facet normal -3.420201e-001  9.396926e-001  0.000000e+000
    outer loop
      vertex -4.688501e-001  2.658981e+000  0.000000e+000
      vertex -1.350000e+000  2.338269e+000  1.400000e+000
      vertex -4.688501e-001  2.658981e+000  1.400000e+000
    endloop
  endfacet
  facet normal  0.000000e+000  1.000000e+000  0.000000e+000
    outer loop
      vertex -4.688501e-001  2.658981e+000  0.000000e+000
      vertex -4.688501e-001  2.658981e+000  1.400000e+000
      vertex  4.688501e-001  2.658981e+000  0.000000e+000
    endloop
  endfacet
  facet normal  0.000000e+000  1.000000e+000  -0.000000e+000
    outer loop
      vertex  4.688501e-001  2.658981e+000  0.000000e+000
      vertex -4.688501e-001  2.658981e+000  1.400000e+000
      vertex  4.688501e-001  2.658981e+000  1.400000e+000
    endloop
  endfacet
  facet normal  3.420201e-001  9.396926e-001  0.000000e+000
    outer loop
      vertex  4.688501e-001  2.658981e+000  0.000000e+000
      vertex  4.688501e-001  2.658981e+000  1.400000e+000
      vertex  1.350000e+000  2.338269e+000  0.000000e+000
    endloop
  endfacet
  facet normal  3.420201e-001  9.396926e-001  -0.000000e+000
    outer loop
      vertex  1.350000e+000  2.338269e+000  0.000000e+000
      vertex  4.688501e-001  2.658981e+000  1.400000e+000
      vertex  1.350000e+000  2.338269e+000  1.400000e+000
    endloop
  endfacet
  facet normal  6.427876e-001  7.660445e-001  0.000000e+000
    outer loop
      vertex  1.350000e+000  2.338269e+000  0.000000e+000
      vertex  1.350000e+000  2.338269e+000  1.400000e+000
      vertex  2.068320e+000  1.735527e+000  0.000000e+000
    endloop
  endfacet
  facet normal  6.427876e-001  7.660445e-001  -0.000000e+000
    outer loop
      vertex  2.068320e+000  1.735527e+000  0.000000e+000
      vertex  1.350000e+000  2.338269e+000  1.400000e+000
      vertex  2.068320e+000  1.735527e+000  1.400000e+000
    endloop
  endfacet
  facet normal  8.660254e-001  5.000001e-001  0.000000e+000
    outer loop
      vertex  2.068320e+000  1.735527e+000  0.000000e+000
      vertex  2.068320e+000  1.735527e+000  1.400000e+000
      vertex  2.537170e+000  9.234544e-001  0.000000e+000
    endloop
  endfacet
  facet normal  8.660254e-001  5.000001e-001  -0.000000e+000
    outer loop
      vertex  2.537170e+000  9.234544e-001  0.000000e+000
      vertex  2.068320e+000  1.735527e+000  1.400000e+000
      vertex  2.537170e+000  9.234544e-001  1.400000e+000
    endloop
  endfacet
  facet normal  9.848078e-001  1.736481e-001  0.000000e+000
    outer loop
      vertex  2.537170e+000  9.234544e-001  0.000000e+000
      vertex  2.537170e+000  9.234544e-001  1.400000e+000
      vertex  2.700000e+000  0.000000e+000  0.000000e+000
    endloop
  endfacet
  facet normal  9.848078e-001  1.736481e-001  -0.000000e+000
    outer loop
      vertex  2.700000e+000  0.000000e+000  0.000000e+000
      vertex  2.537170e+000  9.234544e-001  1.400000e+000
      vertex  2.700000e+000  0.000000e+000  1.400000e+000
    endloop
  endfacet
endsolid CATIA STL
