solid CATIA STL
  facet normal  1.000000e+000  0.000000e+000  0.000000e+000
    outer loop
      vertex  1.708000e+002  1.500000e+000 -3.000000e+000
      vertex  1.708000e+002  1.040000e+002 -3.000000e+000
      vertex  1.708000e+002  1.500000e+000  0.000000e+000
    endloop
  endfacet
  facet normal  1.000000e+000  -0.000000e+000  0.000000e+000
    outer loop
      vertex  1.708000e+002  1.500000e+000  0.000000e+000
      vertex  1.708000e+002  1.040000e+002 -3.000000e+000
      vertex  1.708000e+002  1.000000e+002  0.000000e+000
    endloop
  endfacet
  facet normal  1.000000e+000  0.000000e+000  0.000000e+000
    outer loop
      vertex  1.708000e+002  1.040000e+002 -3.000000e+000
      vertex  1.708000e+002  1.040000e+002  3.000000e+000
      vertex  1.708000e+002  1.000000e+002  0.000000e+000
    endloop
  endfacet
  facet normal  1.000000e+000  0.000000e+000  0.000000e+000
    outer loop
      vertex  1.708000e+002  1.000000e+002  0.000000e+000
      vertex  1.708000e+002  1.040000e+002  3.000000e+000
      vertex  1.708000e+002  1.000000e+002  3.000000e+000
    endloop
  endfacet
  facet normal -1.000000e+000  -0.000000e+000  0.000000e+000
    outer loop
      vertex  0.000000e+000  1.500000e+000  0.000000e+000
      vertex  0.000000e+000  1.000000e+002  0.000000e+000
      vertex  0.000000e+000  1.500000e+000 -3.000000e+000
    endloop
  endfacet
  facet normal -1.000000e+000  0.000000e+000  0.000000e+000
    outer loop
      vertex  0.000000e+000  1.500000e+000 -3.000000e+000
      vertex  0.000000e+000  1.000000e+002  0.000000e+000
      vertex  0.000000e+000  1.040000e+002 -3.000000e+000
    endloop
  endfacet
  facet normal -1.000000e+000  2.664535e-015  3.552714e-015
    outer loop
      vertex  0.000000e+000  1.000000e+002  0.000000e+000
      vertex  1.065814e-014  1.000000e+002  3.000000e+000
      vertex  0.000000e+000  1.040000e+002 -3.000000e+000
    endloop
  endfacet
  facet normal -1.000000e+000  0.000000e+000  1.776357e-015
    outer loop
      vertex  0.000000e+000  1.040000e+002 -3.000000e+000
      vertex  1.065814e-014  1.000000e+002  3.000000e+000
      vertex  1.065814e-014  1.040000e+002  3.000000e+000
    endloop
  endfacet
  facet normal  0.000000e+000  0.000000e+000  1.000000e+000
    outer loop
      vertex  5.000000e+000  1.000000e+002  0.000000e+000
      vertex  1.580192e+001  9.720000e+001  0.000000e+000
      vertex  1.251103e+001  1.029000e+002  0.000000e+000
    endloop
  endfacet
  facet normal  -0.000000e+000  0.000000e+000  1.000000e+000
    outer loop
      vertex  5.000000e+000  1.000000e+002  0.000000e+000
      vertex  0.000000e+000  1.000000e+002  0.000000e+000
      vertex  1.580192e+001  9.720000e+001  0.000000e+000
    endloop
  endfacet
  facet normal  0.000000e+000  -0.000000e+000  1.000000e+000
    outer loop
      vertex  0.000000e+000  1.000000e+002  0.000000e+000
      vertex  5.000000e+000  9.720000e+001  0.000000e+000
      vertex  1.580192e+001  9.720000e+001  0.000000e+000
    endloop
  endfacet
  facet normal  -0.000000e+000  0.000000e+000  1.000000e+000
    outer loop
      vertex  1.658000e+002  1.040000e+002  0.000000e+000
      vertex  5.000000e+000  1.040000e+002  0.000000e+000
      vertex  2.428897e+001  1.029000e+002  0.000000e+000
    endloop
  endfacet
  facet normal  0.000000e+000  0.000000e+000  1.000000e+000
    outer loop
      vertex  1.658000e+002  1.040000e+002  0.000000e+000
      vertex  2.428897e+001  1.029000e+002  0.000000e+000
      vertex  1.450110e+002  1.029000e+002  0.000000e+000
    endloop
  endfacet
  facet normal  0.000000e+000  0.000000e+000  1.000000e+000
    outer loop
      vertex  1.658000e+002  1.040000e+002  0.000000e+000
      vertex  1.450110e+002  1.029000e+002  0.000000e+000
      vertex  1.558000e+002  1.029000e+002  0.000000e+000
    endloop
  endfacet
  facet normal  0.000000e+000  0.000000e+000  1.000000e+000
    outer loop
      vertex  1.658000e+002  1.040000e+002  0.000000e+000
      vertex  1.558000e+002  1.029000e+002  0.000000e+000
      vertex  1.567890e+002  1.029000e+002  0.000000e+000
    endloop
  endfacet
  facet normal  -0.000000e+000  0.000000e+000  1.000000e+000
    outer loop
      vertex  1.658000e+002  1.040000e+002  0.000000e+000
      vertex  1.567890e+002  1.029000e+002  0.000000e+000
      vertex  1.534981e+002  9.720000e+001  0.000000e+000
    endloop
  endfacet
  facet normal  0.000000e+000  0.000000e+000  1.000000e+000
    outer loop
      vertex  1.658000e+002  1.040000e+002  0.000000e+000
      vertex  1.534981e+002  9.720000e+001  0.000000e+000
      vertex  1.658000e+002  1.000000e+002  0.000000e+000
    endloop
  endfacet
  facet normal  -0.000000e+000  0.000000e+000  1.000000e+000
    outer loop
      vertex  1.708000e+002  1.000000e+002  0.000000e+000
      vertex  1.658000e+002  1.000000e+002  0.000000e+000
      vertex  1.534981e+002  9.720000e+001  0.000000e+000
    endloop
  endfacet
  facet normal  0.000000e+000  0.000000e+000  1.000000e+000
    outer loop
      vertex  1.708000e+002  1.000000e+002  0.000000e+000
      vertex  1.534981e+002  9.720000e+001  0.000000e+000
      vertex  1.658000e+002  9.720000e+001  0.000000e+000
    endloop
  endfacet
  facet normal  -0.000000e+000  0.000000e+000  1.000000e+000
    outer loop
      vertex  1.708000e+002  1.000000e+002  0.000000e+000
      vertex  1.658000e+002  9.720000e+001  0.000000e+000
      vertex  1.708000e+002  1.500000e+000  0.000000e+000
    endloop
  endfacet
  facet normal  0.000000e+000  0.000000e+000  1.000000e+000
    outer loop
      vertex  5.000000e+000  1.040000e+002  0.000000e+000
      vertex  5.000000e+000  1.000000e+002  0.000000e+000
      vertex  1.251103e+001  1.029000e+002  0.000000e+000
    endloop
  endfacet
  facet normal  0.000000e+000  -0.000000e+000  9.999999e-001
    outer loop
      vertex  5.000000e+000  1.040000e+002  0.000000e+000
      vertex  1.251103e+001  1.029000e+002  0.000000e+000
      vertex  1.500000e+001  1.029000e+002  0.000000e+000
    endloop
  endfacet
  facet normal  0.000000e+000  -0.000000e+000  1.000000e+000
    outer loop
      vertex  5.000000e+000  1.040000e+002  0.000000e+000
      vertex  1.500000e+001  1.029000e+002  0.000000e+000
      vertex  2.428897e+001  1.029000e+002  0.000000e+000
    endloop
  endfacet
  facet normal  0.000000e+000  0.000000e+000  1.000000e+000
    outer loop
      vertex  0.000000e+000  1.500000e+000  0.000000e+000
      vertex  1.708000e+002  1.500000e+000  0.000000e+000
      vertex  8.599629e+001  4.246283e+000  0.000000e+000
    endloop
  endfacet
  facet normal  0.000000e+000  0.000000e+000  9.999999e-001
    outer loop
      vertex  0.000000e+000  1.500000e+000  0.000000e+000
      vertex  8.599629e+001  4.246283e+000  0.000000e+000
      vertex  8.320370e+001  4.246283e+000  0.000000e+000
    endloop
  endfacet
  facet normal  0.000000e+000  0.000000e+000  1.000000e+000
    outer loop
      vertex  0.000000e+000  1.500000e+000  0.000000e+000
      vertex  8.320370e+001  4.246283e+000  0.000000e+000
      vertex  6.461824e+001  4.246283e+000  0.000000e+000
    endloop
  endfacet
  facet normal  0.000000e+000  0.000000e+000  1.000000e+000
    outer loop
      vertex  0.000000e+000  1.500000e+000  0.000000e+000
      vertex  6.461824e+001  4.246283e+000  0.000000e+000
      vertex  5.000000e+000  4.246283e+000  0.000000e+000
    endloop
  endfacet
  facet normal  0.000000e+000  -0.000000e+000  1.000000e+000
    outer loop
      vertex  0.000000e+000  1.500000e+000  0.000000e+000
      vertex  5.000000e+000  4.246283e+000  0.000000e+000
      vertex  5.000000e+000  6.500000e+000  0.000000e+000
    endloop
  endfacet
  facet normal  0.000000e+000  -0.000000e+000  1.000000e+000
    outer loop
      vertex  0.000000e+000  1.500000e+000  0.000000e+000
      vertex  5.000000e+000  6.500000e+000  0.000000e+000
      vertex  5.000000e+000  9.720000e+001  0.000000e+000
    endloop
  endfacet
  facet normal  0.000000e+000  0.000000e+000  1.000000e+000
    outer loop
      vertex  0.000000e+000  1.500000e+000  0.000000e+000
      vertex  5.000000e+000  9.720000e+001  0.000000e+000
      vertex  0.000000e+000  1.000000e+002  0.000000e+000
    endloop
  endfacet
  facet normal -1.828839e-016 -9.555061e-018  9.999999e-001
    outer loop
      vertex  1.708000e+002  1.500000e+000  0.000000e+000
      vertex  1.658000e+002  9.720000e+001  0.000000e+000
      vertex  1.658000e+002  4.246283e+000 -8.881784e-016
    endloop
  endfacet
  facet normal  1.544899e-017  3.515382e-016  9.999999e-001
    outer loop
      vertex  1.708000e+002  1.500000e+000  0.000000e+000
      vertex  1.658000e+002  4.246283e+000 -8.881784e-016
      vertex  1.083090e+002  4.246283e+000  0.000000e+000
    endloop
  endfacet
  facet normal  0.000000e+000  0.000000e+000  9.999999e-001
    outer loop
      vertex  1.708000e+002  1.500000e+000  0.000000e+000
      vertex  1.083090e+002  4.246283e+000  0.000000e+000
      vertex  8.599629e+001  4.246283e+000  0.000000e+000
    endloop
  endfacet
  facet normal  -0.000000e+000  0.000000e+000  9.999999e-001
    outer loop
      vertex  1.450110e+002  1.029000e+002  0.000000e+000
      vertex  2.428897e+001  1.029000e+002  0.000000e+000
      vertex  1.483019e+002  9.720000e+001  0.000000e+000
    endloop
  endfacet
  facet normal  0.000000e+000  0.000000e+000  1.000000e+000
    outer loop
      vertex  1.483019e+002  9.720000e+001  0.000000e+000
      vertex  2.428897e+001  1.029000e+002  0.000000e+000
      vertex  2.099808e+001  9.720000e+001  0.000000e+000
    endloop
  endfacet
  facet normal  0.000000e+000  1.000000e+000  0.000000e+000
    outer loop
      vertex  1.083090e+002  4.246283e+000 -3.000000e+000
      vertex  6.461824e+001  4.246283e+000 -3.000000e+000
      vertex  6.461824e+001  4.246283e+000  0.000000e+000
    endloop
  endfacet
  facet normal  -0.000000e+000  1.000000e+000  0.000000e+000
    outer loop
      vertex  1.083090e+002  4.246283e+000 -3.000000e+000
      vertex  6.461824e+001  4.246283e+000  0.000000e+000
      vertex  8.320370e+001  4.246283e+000  0.000000e+000
    endloop
  endfacet
  facet normal  -0.000000e+000  1.000000e+000  0.000000e+000
    outer loop
      vertex  1.083090e+002  4.246283e+000 -3.000000e+000
      vertex  8.320370e+001  4.246283e+000  0.000000e+000
      vertex  8.599629e+001  4.246283e+000  0.000000e+000
    endloop
  endfacet
  facet normal  -0.000000e+000  1.000000e+000  0.000000e+000
    outer loop
      vertex  1.083090e+002  4.246283e+000 -3.000000e+000
      vertex  8.599629e+001  4.246283e+000  0.000000e+000
      vertex  1.083090e+002  4.246283e+000  0.000000e+000
    endloop
  endfacet
  facet normal  0.000000e+000 -1.000000e+000  0.000000e+000
    outer loop
      vertex  0.000000e+000  1.500000e+000  0.000000e+000
      vertex  0.000000e+000  1.500000e+000 -3.000000e+000
      vertex  1.708000e+002  1.500000e+000  0.000000e+000
    endloop
  endfacet
  facet normal  0.000000e+000 -1.000000e+000  -0.000000e+000
    outer loop
      vertex  1.708000e+002  1.500000e+000  0.000000e+000
      vertex  0.000000e+000  1.500000e+000 -3.000000e+000
      vertex  1.708000e+002  1.500000e+000 -3.000000e+000
    endloop
  endfacet
  facet normal  1.000000e+000  0.000000e+000  0.000000e+000
    outer loop
      vertex  6.461824e+001  4.246283e+000 -3.000000e+000
      vertex  6.461824e+001  4.500000e+000 -3.000000e+000
      vertex  6.461824e+001  4.246283e+000  0.000000e+000
    endloop
  endfacet
  facet normal  1.000000e+000  0.000000e+000  0.000000e+000
    outer loop
      vertex  6.461824e+001  4.246283e+000  0.000000e+000
      vertex  6.461824e+001  4.500000e+000 -3.000000e+000
      vertex  6.461824e+001  4.500000e+000 -2.900000e+000
    endloop
  endfacet
  facet normal -1.000000e+000  0.000000e+000  -0.000000e+000
    outer loop
      vertex  1.083090e+002  4.246283e+000 -3.000000e+000
      vertex  1.083090e+002  4.500000e+000 -2.900000e+000
      vertex  1.083090e+002  4.500000e+000 -3.000000e+000
    endloop
  endfacet
  facet normal -1.000000e+000  0.000000e+000  0.000000e+000
    outer loop
      vertex  1.083090e+002  4.246283e+000 -3.000000e+000
      vertex  1.083090e+002  4.246283e+000  0.000000e+000
      vertex  1.083090e+002  4.500000e+000 -2.900000e+000
    endloop
  endfacet
  facet normal  0.000000e+000  9.961947e-001  8.715568e-002
    outer loop
      vertex  1.658000e+002  4.246283e+000 -8.881784e-016
      vertex  1.658000e+002  4.500000e+000 -2.900000e+000
      vertex  1.083090e+002  4.246283e+000  0.000000e+000
    endloop
  endfacet
  facet normal  0.000000e+000  9.961947e-001  8.715568e-002
    outer loop
      vertex  1.083090e+002  4.246283e+000  0.000000e+000
      vertex  1.658000e+002  4.500000e+000 -2.900000e+000
      vertex  1.083090e+002  4.500000e+000 -2.900000e+000
    endloop
  endfacet
  facet normal  0.000000e+000  9.961947e-001  8.715568e-002
    outer loop
      vertex  6.461824e+001  4.246283e+000  0.000000e+000
      vertex  6.461824e+001  4.500000e+000 -2.900000e+000
      vertex  5.000000e+000  4.246283e+000  0.000000e+000
    endloop
  endfacet
  facet normal  0.000000e+000  9.961947e-001  8.715568e-002
    outer loop
      vertex  5.000000e+000  4.246283e+000  0.000000e+000
      vertex  6.461824e+001  4.500000e+000 -2.900000e+000
      vertex  5.000000e+000  4.500000e+000 -2.900000e+000
    endloop
  endfacet
  facet normal  0.000000e+000  1.000000e+000  0.000000e+000
    outer loop
      vertex  6.461824e+001  4.500000e+000 -3.000000e+000
      vertex  5.000000e+000  4.500000e+000 -3.000000e+000
      vertex  6.461824e+001  4.500000e+000 -2.900000e+000
    endloop
  endfacet
  facet normal  0.000000e+000  1.000000e+000  0.000000e+000
    outer loop
      vertex  6.461824e+001  4.500000e+000 -2.900000e+000
      vertex  5.000000e+000  4.500000e+000 -3.000000e+000
      vertex  5.000000e+000  4.500000e+000 -2.900000e+000
    endloop
  endfacet
  facet normal  0.000000e+000  1.000000e+000  0.000000e+000
    outer loop
      vertex  1.658000e+002  4.500000e+000 -3.000000e+000
      vertex  1.083090e+002  4.500000e+000 -3.000000e+000
      vertex  1.658000e+002  4.500000e+000 -2.900000e+000
    endloop
  endfacet
  facet normal  0.000000e+000  1.000000e+000  0.000000e+000
    outer loop
      vertex  1.658000e+002  4.500000e+000 -2.900000e+000
      vertex  1.083090e+002  4.500000e+000 -3.000000e+000
      vertex  1.083090e+002  4.500000e+000 -2.900000e+000
    endloop
  endfacet
  facet normal  0.000000e+000  0.000000e+000 -1.000000e+000
    outer loop
      vertex  1.840000e+001  9.270000e+001 -3.000000e+000
      vertex  1.580192e+001  9.720000e+001 -3.000000e+000
      vertex  2.099808e+001  9.720000e+001 -3.000000e+000
    endloop
  endfacet
  facet normal  0.000000e+000  0.000000e+000 -1.000000e+000
    outer loop
      vertex  1.509000e+002  9.270000e+001 -3.000000e+000
      vertex  1.483019e+002  9.720000e+001 -3.000000e+000
      vertex  1.534981e+002  9.720000e+001 -3.000000e+000
    endloop
  endfacet
  facet normal  0.000000e+000  0.000000e+000 -1.000000e+000
    outer loop
      vertex  1.708000e+002  1.040000e+002 -3.000000e+000
      vertex  1.708000e+002  1.500000e+000 -3.000000e+000
      vertex  1.658000e+002  4.500000e+000 -3.000000e+000
    endloop
  endfacet
  facet normal  0.000000e+000  0.000000e+000 -9.999999e-001
    outer loop
      vertex  1.708000e+002  1.040000e+002 -3.000000e+000
      vertex  1.658000e+002  4.500000e+000 -3.000000e+000
      vertex  1.658000e+002  9.720000e+001 -3.000000e+000
    endloop
  endfacet
  facet normal  0.000000e+000  0.000000e+000 -9.999999e-001
    outer loop
      vertex  1.708000e+002  1.040000e+002 -3.000000e+000
      vertex  1.658000e+002  9.720000e+001 -3.000000e+000
      vertex  1.534981e+002  9.720000e+001 -3.000000e+000
    endloop
  endfacet
  facet normal  0.000000e+000  0.000000e+000 -1.000000e+000
    outer loop
      vertex  1.708000e+002  1.040000e+002 -3.000000e+000
      vertex  1.534981e+002  9.720000e+001 -3.000000e+000
      vertex  1.483019e+002  9.720000e+001 -3.000000e+000
    endloop
  endfacet
  facet normal  0.000000e+000  0.000000e+000 -1.000000e+000
    outer loop
      vertex  1.708000e+002  1.040000e+002 -3.000000e+000
      vertex  1.483019e+002  9.720000e+001 -3.000000e+000
      vertex  2.099808e+001  9.720000e+001 -3.000000e+000
    endloop
  endfacet
  facet normal  0.000000e+000  0.000000e+000 -1.000000e+000
    outer loop
      vertex  1.708000e+002  1.040000e+002 -3.000000e+000
      vertex  2.099808e+001  9.720000e+001 -3.000000e+000
      vertex  0.000000e+000  1.040000e+002 -3.000000e+000
    endloop
  endfacet
  facet normal  0.000000e+000  0.000000e+000 -1.000000e+000
    outer loop
      vertex  0.000000e+000  1.040000e+002 -3.000000e+000
      vertex  2.099808e+001  9.720000e+001 -3.000000e+000
      vertex  1.580192e+001  9.720000e+001 -3.000000e+000
    endloop
  endfacet
  facet normal  0.000000e+000  0.000000e+000 -1.000000e+000
    outer loop
      vertex  0.000000e+000  1.040000e+002 -3.000000e+000
      vertex  1.580192e+001  9.720000e+001 -3.000000e+000
      vertex  5.000000e+000  9.720000e+001 -3.000000e+000
    endloop
  endfacet
  facet normal  -0.000000e+000  -0.000000e+000 -9.999999e-001
    outer loop
      vertex  0.000000e+000  1.040000e+002 -3.000000e+000
      vertex  5.000000e+000  9.720000e+001 -3.000000e+000
      vertex  5.000000e+000  4.500000e+000 -3.000000e+000
    endloop
  endfacet
  facet normal  -0.000000e+000  0.000000e+000 -1.000000e+000
    outer loop
      vertex  0.000000e+000  1.040000e+002 -3.000000e+000
      vertex  5.000000e+000  4.500000e+000 -3.000000e+000
      vertex  0.000000e+000  1.500000e+000 -3.000000e+000
    endloop
  endfacet
  facet normal  0.000000e+000  0.000000e+000 -1.000000e+000
    outer loop
      vertex  1.708000e+002  1.500000e+000 -3.000000e+000
      vertex  1.083090e+002  4.500000e+000 -3.000000e+000
      vertex  1.658000e+002  4.500000e+000 -3.000000e+000
    endloop
  endfacet
  facet normal  0.000000e+000  0.000000e+000 -9.999999e-001
    outer loop
      vertex  1.083090e+002  4.500000e+000 -3.000000e+000
      vertex  1.708000e+002  1.500000e+000 -3.000000e+000
      vertex  1.083090e+002  4.246283e+000 -3.000000e+000
    endloop
  endfacet
  facet normal  0.000000e+000  -0.000000e+000 -1.000000e+000
    outer loop
      vertex  1.083090e+002  4.246283e+000 -3.000000e+000
      vertex  1.708000e+002  1.500000e+000 -3.000000e+000
      vertex  0.000000e+000  1.500000e+000 -3.000000e+000
    endloop
  endfacet
  facet normal  0.000000e+000  0.000000e+000 -1.000000e+000
    outer loop
      vertex  1.083090e+002  4.246283e+000 -3.000000e+000
      vertex  0.000000e+000  1.500000e+000 -3.000000e+000
      vertex  6.461824e+001  4.246283e+000 -3.000000e+000
    endloop
  endfacet
  facet normal  -0.000000e+000  0.000000e+000 -1.000000e+000
    outer loop
      vertex  6.461824e+001  4.246283e+000 -3.000000e+000
      vertex  0.000000e+000  1.500000e+000 -3.000000e+000
      vertex  5.000000e+000  4.500000e+000 -3.000000e+000
    endloop
  endfacet
  facet normal  0.000000e+000  0.000000e+000 -1.000000e+000
    outer loop
      vertex  6.461824e+001  4.246283e+000 -3.000000e+000
      vertex  5.000000e+000  4.500000e+000 -3.000000e+000
      vertex  6.461824e+001  4.500000e+000 -3.000000e+000
    endloop
  endfacet
  facet normal  0.000000e+000  0.000000e+000  1.000000e+000
    outer loop
      vertex  1.065814e-014  1.000000e+002  3.000000e+000
      vertex  5.000000e+000  1.000000e+002  3.000000e+000
      vertex  1.065814e-014  1.040000e+002  3.000000e+000
    endloop
  endfacet
  facet normal  -0.000000e+000  0.000000e+000  1.000000e+000
    outer loop
      vertex  1.065814e-014  1.040000e+002  3.000000e+000
      vertex  5.000000e+000  1.000000e+002  3.000000e+000
      vertex  5.000000e+000  1.040000e+002  3.000000e+000
    endloop
  endfacet
  facet normal  0.000000e+000  0.000000e+000  1.000000e+000
    outer loop
      vertex  1.658000e+002  1.000000e+002  3.000000e+000
      vertex  1.708000e+002  1.000000e+002  3.000000e+000
      vertex  1.658000e+002  1.040000e+002  3.000000e+000
    endloop
  endfacet
  facet normal  -0.000000e+000  0.000000e+000  1.000000e+000
    outer loop
      vertex  1.658000e+002  1.040000e+002  3.000000e+000
      vertex  1.708000e+002  1.000000e+002  3.000000e+000
      vertex  1.708000e+002  1.040000e+002  3.000000e+000
    endloop
  endfacet
  facet normal  -0.000000e+000  1.000000e+000  0.000000e+000
    outer loop
      vertex  1.708000e+002  1.040000e+002 -3.000000e+000
      vertex  1.658000e+002  1.040000e+002  3.000000e+000
      vertex  1.708000e+002  1.040000e+002  3.000000e+000
    endloop
  endfacet
  facet normal  0.000000e+000  1.000000e+000  0.000000e+000
    outer loop
      vertex  1.658000e+002  1.040000e+002  3.000000e+000
      vertex  1.708000e+002  1.040000e+002 -3.000000e+000
      vertex  1.658000e+002  1.040000e+002  0.000000e+000
    endloop
  endfacet
  facet normal  0.000000e+000  1.000000e+000  0.000000e+000
    outer loop
      vertex  1.658000e+002  1.040000e+002  0.000000e+000
      vertex  1.708000e+002  1.040000e+002 -3.000000e+000
      vertex  0.000000e+000  1.040000e+002 -3.000000e+000
    endloop
  endfacet
  facet normal  0.000000e+000  9.999999e-001  0.000000e+000
    outer loop
      vertex  1.658000e+002  1.040000e+002  0.000000e+000
      vertex  0.000000e+000  1.040000e+002 -3.000000e+000
      vertex  5.000000e+000  1.040000e+002  0.000000e+000
    endloop
  endfacet
  facet normal  0.000000e+000  1.000000e+000  0.000000e+000
    outer loop
      vertex  5.000000e+000  1.040000e+002  0.000000e+000
      vertex  0.000000e+000  1.040000e+002 -3.000000e+000
      vertex  1.065814e-014  1.040000e+002  3.000000e+000
    endloop
  endfacet
  facet normal  -0.000000e+000  1.000000e+000  0.000000e+000
    outer loop
      vertex  5.000000e+000  1.040000e+002  0.000000e+000
      vertex  1.065814e-014  1.040000e+002  3.000000e+000
      vertex  5.000000e+000  1.040000e+002  3.000000e+000
    endloop
  endfacet
  facet normal  1.000000e+000  0.000000e+000  0.000000e+000
    outer loop
      vertex  5.000000e+000  1.040000e+002  0.000000e+000
      vertex  5.000000e+000  1.040000e+002  3.000000e+000
      vertex  5.000000e+000  1.000000e+002  0.000000e+000
    endloop
  endfacet
  facet normal  1.000000e+000  0.000000e+000  0.000000e+000
    outer loop
      vertex  5.000000e+000  1.000000e+002  0.000000e+000
      vertex  5.000000e+000  1.040000e+002  3.000000e+000
      vertex  5.000000e+000  1.000000e+002  3.000000e+000
    endloop
  endfacet
  facet normal  0.000000e+000 -1.000000e+000  0.000000e+000
    outer loop
      vertex  5.000000e+000  1.000000e+002  3.000000e+000
      vertex  1.065814e-014  1.000000e+002  3.000000e+000
      vertex  5.000000e+000  1.000000e+002  0.000000e+000
    endloop
  endfacet
  facet normal  0.000000e+000 -1.000000e+000  0.000000e+000
    outer loop
      vertex  5.000000e+000  1.000000e+002  0.000000e+000
      vertex  1.065814e-014  1.000000e+002  3.000000e+000
      vertex  0.000000e+000  1.000000e+002  0.000000e+000
    endloop
  endfacet
  facet normal  0.000000e+000 -1.000000e+000  0.000000e+000
    outer loop
      vertex  1.708000e+002  1.000000e+002  3.000000e+000
      vertex  1.658000e+002  1.000000e+002  3.000000e+000
      vertex  1.708000e+002  1.000000e+002  0.000000e+000
    endloop
  endfacet
  facet normal  0.000000e+000 -1.000000e+000  0.000000e+000
    outer loop
      vertex  1.708000e+002  1.000000e+002  0.000000e+000
      vertex  1.658000e+002  1.000000e+002  3.000000e+000
      vertex  1.658000e+002  1.000000e+002  0.000000e+000
    endloop
  endfacet
  facet normal -1.000000e+000  0.000000e+000  0.000000e+000
    outer loop
      vertex  1.658000e+002  1.000000e+002  0.000000e+000
      vertex  1.658000e+002  1.000000e+002  3.000000e+000
      vertex  1.658000e+002  1.040000e+002  0.000000e+000
    endloop
  endfacet
  facet normal -1.000000e+000  0.000000e+000  0.000000e+000
    outer loop
      vertex  1.658000e+002  1.040000e+002  0.000000e+000
      vertex  1.658000e+002  1.000000e+002  3.000000e+000
      vertex  1.658000e+002  1.040000e+002  3.000000e+000
    endloop
  endfacet
  facet normal  9.999999e-001  -0.000000e+000  0.000000e+000
    outer loop
      vertex  5.000000e+000  6.500000e+000  0.000000e+000
      vertex  5.000000e+000  4.246283e+000  0.000000e+000
      vertex  5.000000e+000  4.500000e+000 -2.900000e+000
    endloop
  endfacet
  facet normal  1.000000e+000  0.000000e+000  0.000000e+000
    outer loop
      vertex  5.000000e+000  4.500000e+000 -2.900000e+000
      vertex  5.000000e+000  4.500000e+000 -3.000000e+000
      vertex  5.000000e+000  6.500000e+000  0.000000e+000
    endloop
  endfacet
  facet normal  1.000000e+000  0.000000e+000  0.000000e+000
    outer loop
      vertex  5.000000e+000  6.500000e+000  0.000000e+000
      vertex  5.000000e+000  4.500000e+000 -3.000000e+000
      vertex  5.000000e+000  9.720000e+001 -3.000000e+000
    endloop
  endfacet
  facet normal  1.000000e+000  0.000000e+000  -0.000000e+000
    outer loop
      vertex  5.000000e+000  6.500000e+000  0.000000e+000
      vertex  5.000000e+000  9.720000e+001 -3.000000e+000
      vertex  5.000000e+000  9.720000e+001  0.000000e+000
    endloop
  endfacet
  facet normal -1.000000e+000  0.000000e+000  0.000000e+000
    outer loop
      vertex  1.658000e+002  9.720000e+001 -3.000000e+000
      vertex  1.658000e+002  4.500000e+000 -3.000000e+000
      vertex  1.658000e+002  9.720000e+001  0.000000e+000
    endloop
  endfacet
  facet normal -9.999999e-001  0.000000e+000  0.000000e+000
    outer loop
      vertex  1.658000e+002  9.720000e+001  0.000000e+000
      vertex  1.658000e+002  4.500000e+000 -3.000000e+000
      vertex  1.658000e+002  4.500000e+000 -2.900000e+000
    endloop
  endfacet
  facet normal -1.000000e+000  0.000000e+000  0.000000e+000
    outer loop
      vertex  1.658000e+002  9.720000e+001  0.000000e+000
      vertex  1.658000e+002  4.500000e+000 -2.900000e+000
      vertex  1.658000e+002  4.246283e+000 -8.881784e-016
    endloop
  endfacet
  facet normal  0.000000e+000 -1.000000e+000  0.000000e+000
    outer loop
      vertex  1.534981e+002  9.720000e+001 -3.000000e+000
      vertex  1.658000e+002  9.720000e+001 -3.000000e+000
      vertex  1.534981e+002  9.720000e+001  0.000000e+000
    endloop
  endfacet
  facet normal  0.000000e+000 -1.000000e+000  0.000000e+000
    outer loop
      vertex  1.534981e+002  9.720000e+001  0.000000e+000
      vertex  1.658000e+002  9.720000e+001 -3.000000e+000
      vertex  1.658000e+002  9.720000e+001  0.000000e+000
    endloop
  endfacet
  facet normal  0.000000e+000 -1.000000e+000  0.000000e+000
    outer loop
      vertex  5.000000e+000  9.720000e+001 -3.000000e+000
      vertex  1.580192e+001  9.720000e+001 -3.000000e+000
      vertex  5.000000e+000  9.720000e+001  0.000000e+000
    endloop
  endfacet
  facet normal  0.000000e+000 -1.000000e+000  0.000000e+000
    outer loop
      vertex  5.000000e+000  9.720000e+001  0.000000e+000
      vertex  1.580192e+001  9.720000e+001 -3.000000e+000
      vertex  1.580192e+001  9.720000e+001  0.000000e+000
    endloop
  endfacet
  facet normal  0.000000e+000  1.000000e+000  -0.000000e+000
    outer loop
      vertex  1.567890e+002  1.029000e+002  1.100000e+001
      vertex  1.567890e+002  1.029000e+002  0.000000e+000
      vertex  1.450110e+002  1.029000e+002  1.100000e+001
    endloop
  endfacet
  facet normal  0.000000e+000  1.000000e+000  0.000000e+000
    outer loop
      vertex  1.450110e+002  1.029000e+002  1.100000e+001
      vertex  1.567890e+002  1.029000e+002  0.000000e+000
      vertex  1.558000e+002  1.029000e+002  0.000000e+000
    endloop
  endfacet
  facet normal  0.000000e+000  1.000000e+000  0.000000e+000
    outer loop
      vertex  1.450110e+002  1.029000e+002  1.100000e+001
      vertex  1.558000e+002  1.029000e+002  0.000000e+000
      vertex  1.450110e+002  1.029000e+002  0.000000e+000
    endloop
  endfacet
  facet normal  0.000000e+000  1.000000e+000  -0.000000e+000
    outer loop
      vertex  2.428897e+001  1.029000e+002  1.100000e+001
      vertex  2.428897e+001  1.029000e+002  0.000000e+000
      vertex  1.251103e+001  1.029000e+002  1.100000e+001
    endloop
  endfacet
  facet normal  0.000000e+000  1.000000e+000  0.000000e+000
    outer loop
      vertex  1.251103e+001  1.029000e+002  1.100000e+001
      vertex  2.428897e+001  1.029000e+002  0.000000e+000
      vertex  1.500000e+001  1.029000e+002  0.000000e+000
    endloop
  endfacet
  facet normal  0.000000e+000  1.000000e+000  0.000000e+000
    outer loop
      vertex  1.251103e+001  1.029000e+002  1.100000e+001
      vertex  1.500000e+001  1.029000e+002  0.000000e+000
      vertex  1.251103e+001  1.029000e+002  0.000000e+000
    endloop
  endfacet
  facet normal -8.660259e-001 -4.999991e-001  0.000000e+000
    outer loop
      vertex  1.450110e+002  1.029000e+002  1.100000e+001
      vertex  1.450110e+002  1.029000e+002  0.000000e+000
      vertex  1.509000e+002  9.270000e+001  1.100000e+001
    endloop
  endfacet
  facet normal -8.660257e-001 -4.999993e-001 -2.783220e-007
    outer loop
      vertex  1.509000e+002  9.270000e+001  1.100000e+001
      vertex  1.450110e+002  1.029000e+002  0.000000e+000
      vertex  1.483019e+002  9.720000e+001  0.000000e+000
    endloop
  endfacet
  facet normal -8.660260e-001 -4.999988e-001  0.000000e+000
    outer loop
      vertex  1.509000e+002  9.270000e+001  1.100000e+001
      vertex  1.483019e+002  9.720000e+001  0.000000e+000
      vertex  1.509000e+002  9.270000e+001 -3.000000e+000
    endloop
  endfacet
  facet normal -8.660261e-001 -4.999989e-001  0.000000e+000
    outer loop
      vertex  1.509000e+002  9.270000e+001 -3.000000e+000
      vertex  1.483019e+002  9.720000e+001  0.000000e+000
      vertex  1.483019e+002  9.720000e+001 -3.000000e+000
    endloop
  endfacet
  facet normal  8.660254e-001 -4.999998e-001  0.000000e+000
    outer loop
      vertex  2.428897e+001  1.029000e+002  1.100000e+001
      vertex  1.840000e+001  9.270000e+001  1.100000e+001
      vertex  2.428897e+001  1.029000e+002  0.000000e+000
    endloop
  endfacet
  facet normal  8.660255e-001 -4.999998e-001  8.523510e-008
    outer loop
      vertex  2.428897e+001  1.029000e+002  0.000000e+000
      vertex  1.840000e+001  9.270000e+001  1.100000e+001
      vertex  2.099808e+001  9.720000e+001  0.000000e+000
    endloop
  endfacet
  facet normal  8.660254e-001 -5.000000e-001  0.000000e+000
    outer loop
      vertex  1.840000e+001  9.270000e+001  1.100000e+001
      vertex  1.840000e+001  9.270000e+001 -3.000000e+000
      vertex  2.099808e+001  9.720000e+001  0.000000e+000
    endloop
  endfacet
  facet normal  8.660254e-001 -4.999999e-001  0.000000e+000
    outer loop
      vertex  2.099808e+001  9.720000e+001  0.000000e+000
      vertex  1.840000e+001  9.270000e+001 -3.000000e+000
      vertex  2.099808e+001  9.720000e+001 -3.000000e+000
    endloop
  endfacet
  facet normal  8.660248e-001 -5.000011e-001  0.000000e+000
    outer loop
      vertex  1.509000e+002  9.270000e+001 -3.000000e+000
      vertex  1.534981e+002  9.720000e+001 -3.000000e+000
      vertex  1.509000e+002  9.270000e+001  1.100000e+001
    endloop
  endfacet
  facet normal  8.660249e-001 -5.000011e-001  0.000000e+000
    outer loop
      vertex  1.509000e+002  9.270000e+001  1.100000e+001
      vertex  1.534981e+002  9.720000e+001 -3.000000e+000
      vertex  1.534981e+002  9.720000e+001  0.000000e+000
    endloop
  endfacet
  facet normal  8.660254e-001 -5.000001e-001  5.157921e-007
    outer loop
      vertex  1.509000e+002  9.270000e+001  1.100000e+001
      vertex  1.534981e+002  9.720000e+001  0.000000e+000
      vertex  1.567890e+002  1.029000e+002  1.100000e+001
    endloop
  endfacet
  facet normal  8.660257e-001 -4.999993e-001  0.000000e+000
    outer loop
      vertex  1.567890e+002  1.029000e+002  1.100000e+001
      vertex  1.534981e+002  9.720000e+001  0.000000e+000
      vertex  1.567890e+002  1.029000e+002  0.000000e+000
    endloop
  endfacet
  facet normal -8.660254e-001 -5.000000e-001  -0.000000e+000
    outer loop
      vertex  1.840000e+001  9.270000e+001 -3.000000e+000
      vertex  1.840000e+001  9.270000e+001  1.100000e+001
      vertex  1.580192e+001  9.720000e+001 -3.000000e+000
    endloop
  endfacet
  facet normal -8.660254e-001 -4.999999e-001  0.000000e+000
    outer loop
      vertex  1.580192e+001  9.720000e+001 -3.000000e+000
      vertex  1.840000e+001  9.270000e+001  1.100000e+001
      vertex  1.580192e+001  9.720000e+001  0.000000e+000
    endloop
  endfacet
  facet normal -8.660254e-001 -4.999998e-001  8.075596e-008
    outer loop
      vertex  1.840000e+001  9.270000e+001  1.100000e+001
      vertex  1.251103e+001  1.029000e+002  1.100000e+001
      vertex  1.580192e+001  9.720000e+001  0.000000e+000
    endloop
  endfacet
  facet normal -8.660256e-001 -4.999997e-001  0.000000e+000
    outer loop
      vertex  1.580192e+001  9.720000e+001  0.000000e+000
      vertex  1.251103e+001  1.029000e+002  1.100000e+001
      vertex  1.251103e+001  1.029000e+002  0.000000e+000
    endloop
  endfacet
  facet normal  0.000000e+000 -1.000000e+000  0.000000e+000
    outer loop
      vertex  2.099808e+001  9.720000e+001 -3.000000e+000
      vertex  1.483019e+002  9.720000e+001 -3.000000e+000
      vertex  2.099808e+001  9.720000e+001  0.000000e+000
    endloop
  endfacet
  facet normal  0.000000e+000 -1.000000e+000  0.000000e+000
    outer loop
      vertex  2.099808e+001  9.720000e+001  0.000000e+000
      vertex  1.483019e+002  9.720000e+001 -3.000000e+000
      vertex  1.483019e+002  9.720000e+001  0.000000e+000
    endloop
  endfacet
  facet normal  0.000000e+000  -0.000000e+000  1.000000e+000
    outer loop
      vertex  1.251103e+001  1.029000e+002  1.100000e+001
      vertex  1.840000e+001  9.270000e+001  1.100000e+001
      vertex  2.428897e+001  1.029000e+002  1.100000e+001
    endloop
  endfacet
  facet normal  0.000000e+000  -0.000000e+000  1.000000e+000
    outer loop
      vertex  1.450110e+002  1.029000e+002  1.100000e+001
      vertex  1.509000e+002  9.270000e+001  1.100000e+001
      vertex  1.567890e+002  1.029000e+002  1.100000e+001
    endloop
  endfacet
endsolid CATIA STL
