solid CATIA STL
  facet normal  0.000000e+000  1.000000e+000  0.000000e+000
    outer loop
      vertex -3.146094e+001  1.803976e+001  3.000000e+000
      vertex  4.853906e+001  1.803976e+001  3.000000e+000
      vertex -3.146094e+001  1.803976e+001  1.200000e+000
    endloop
  endfacet
  facet normal  0.000000e+000  1.000000e+000  0.000000e+000
    outer loop
      vertex -3.146094e+001  1.803976e+001  1.200000e+000
      vertex  4.853906e+001  1.803976e+001  3.000000e+000
      vertex  4.853906e+001  1.803976e+001  1.200000e+000
    endloop
  endfacet
  facet normal  2.220446e-017  0.000000e+000 -9.999999e-001
    outer loop
      vertex -3.146094e+001 -1.526024e+001  0.000000e+000
      vertex -3.146094e+001  1.683976e+001  0.000000e+000
      vertex  4.853906e+001 -1.526024e+001  1.776357e-015
    endloop
  endfacet
  facet normal  4.440892e-017  5.533822e-017 -9.999999e-001
    outer loop
      vertex  4.853906e+001 -1.526024e+001  1.776357e-015
      vertex -3.146094e+001  1.683976e+001  0.000000e+000
      vertex  4.853906e+001  1.683976e+001  3.552714e-015
    endloop
  endfacet
  facet normal  0.000000e+000 -1.000000e+000  0.000000e+000
    outer loop
      vertex  4.853906e+001 -1.646024e+001  3.000000e+000
      vertex -3.146094e+001 -1.646024e+001  3.000000e+000
      vertex  4.853906e+001 -1.646024e+001  1.200000e+000
    endloop
  endfacet
  facet normal  0.000000e+000 -1.000000e+000  0.000000e+000
    outer loop
      vertex  4.853906e+001 -1.646024e+001  1.200000e+000
      vertex -3.146094e+001 -1.646024e+001  3.000000e+000
      vertex -3.146094e+001 -1.646024e+001  1.200000e+000
    endloop
  endfacet
  facet normal -1.000000e+000  0.000000e+000  0.000000e+000
    outer loop
      vertex -3.146094e+001  1.403976e+001  3.000000e+000
      vertex -3.146094e+001  1.103976e+001  6.000000e+000
      vertex -3.146094e+001  1.603976e+001  6.000000e+000
    endloop
  endfacet
  facet normal -1.000000e+000  0.000000e+000  -0.000000e+000
    outer loop
      vertex -3.146094e+001  1.403976e+001  3.000000e+000
      vertex -3.146094e+001  1.603976e+001  6.000000e+000
      vertex -3.146094e+001  1.683976e+001  0.000000e+000
    endloop
  endfacet
  facet normal -1.000000e+000  0.000000e+000  0.000000e+000
    outer loop
      vertex -3.146094e+001  1.403976e+001  3.000000e+000
      vertex -3.146094e+001  1.683976e+001  0.000000e+000
      vertex -3.146094e+001 -1.526024e+001  0.000000e+000
    endloop
  endfacet
  facet normal -9.999999e-001  0.000000e+000  0.000000e+000
    outer loop
      vertex -3.146094e+001  1.403976e+001  3.000000e+000
      vertex -3.146094e+001 -1.526024e+001  0.000000e+000
      vertex -3.146094e+001 -1.246024e+001  3.000000e+000
    endloop
  endfacet
  facet normal -1.000000e+000  -0.000000e+000  0.000000e+000
    outer loop
      vertex -3.146094e+001 -1.446024e+001  6.000000e+000
      vertex -3.146094e+001 -9.460243e+000  6.000000e+000
      vertex -3.146094e+001 -1.246024e+001  3.000000e+000
    endloop
  endfacet
  facet normal -1.000000e+000  -0.000000e+000  0.000000e+000
    outer loop
      vertex -3.146094e+001 -1.446024e+001  6.000000e+000
      vertex -3.146094e+001 -1.246024e+001  3.000000e+000
      vertex -3.146094e+001 -1.526024e+001  0.000000e+000
    endloop
  endfacet
  facet normal -1.000000e+000  0.000000e+000  0.000000e+000
    outer loop
      vertex -3.146094e+001 -1.446024e+001  6.000000e+000
      vertex -3.146094e+001 -1.526024e+001  0.000000e+000
      vertex -3.146094e+001 -1.646024e+001  1.200000e+000
    endloop
  endfacet
  facet normal -1.000000e+000  0.000000e+000  0.000000e+000
    outer loop
      vertex -3.146094e+001 -1.446024e+001  6.000000e+000
      vertex -3.146094e+001 -1.646024e+001  1.200000e+000
      vertex -3.146094e+001 -1.646024e+001  3.000000e+000
    endloop
  endfacet
  facet normal -1.000000e+000  0.000000e+000  0.000000e+000
    outer loop
      vertex -3.146094e+001  1.803976e+001  3.000000e+000
      vertex -3.146094e+001  1.803976e+001  1.200000e+000
      vertex -3.146094e+001  1.603976e+001  6.000000e+000
    endloop
  endfacet
  facet normal -1.000000e+000  0.000000e+000  0.000000e+000
    outer loop
      vertex -3.146094e+001  1.603976e+001  6.000000e+000
      vertex -3.146094e+001  1.803976e+001  1.200000e+000
      vertex -3.146094e+001  1.683976e+001  0.000000e+000
    endloop
  endfacet
  facet normal  1.000000e+000  0.000000e+000  0.000000e+000
    outer loop
      vertex  4.853906e+001 -1.246024e+001  3.000000e+000
      vertex  4.853906e+001 -9.460243e+000  6.000000e+000
      vertex  4.853906e+001 -1.446024e+001  6.000000e+000
    endloop
  endfacet
  facet normal  1.000000e+000  0.000000e+000  0.000000e+000
    outer loop
      vertex  4.853906e+001 -1.246024e+001  3.000000e+000
      vertex  4.853906e+001 -1.446024e+001  6.000000e+000
      vertex  4.853906e+001 -1.526024e+001  1.776357e-015
    endloop
  endfacet
  facet normal  1.000000e+000  0.000000e+000  0.000000e+000
    outer loop
      vertex  4.853906e+001 -1.246024e+001  3.000000e+000
      vertex  4.853906e+001 -1.526024e+001  1.776357e-015
      vertex  4.853906e+001  1.683976e+001  3.552714e-015
    endloop
  endfacet
  facet normal  9.999999e-001  0.000000e+000  0.000000e+000
    outer loop
      vertex  4.853906e+001 -1.246024e+001  3.000000e+000
      vertex  4.853906e+001  1.683976e+001  3.552714e-015
      vertex  4.853906e+001  1.403976e+001  3.000000e+000
    endloop
  endfacet
  facet normal  1.000000e+000  -0.000000e+000  0.000000e+000
    outer loop
      vertex  4.853906e+001  1.603976e+001  6.000000e+000
      vertex  4.853906e+001  1.103976e+001  6.000000e+000
      vertex  4.853906e+001  1.403976e+001  3.000000e+000
    endloop
  endfacet
  facet normal  1.000000e+000  -0.000000e+000  0.000000e+000
    outer loop
      vertex  4.853906e+001  1.603976e+001  6.000000e+000
      vertex  4.853906e+001  1.403976e+001  3.000000e+000
      vertex  4.853906e+001  1.683976e+001  3.552714e-015
    endloop
  endfacet
  facet normal  1.000000e+000  0.000000e+000  -0.000000e+000
    outer loop
      vertex  4.853906e+001  1.603976e+001  6.000000e+000
      vertex  4.853906e+001  1.683976e+001  3.552714e-015
      vertex  4.853906e+001  1.803976e+001  1.200000e+000
    endloop
  endfacet
  facet normal  1.000000e+000  0.000000e+000  -0.000000e+000
    outer loop
      vertex  4.853906e+001  1.603976e+001  6.000000e+000
      vertex  4.853906e+001  1.803976e+001  1.200000e+000
      vertex  4.853906e+001  1.803976e+001  3.000000e+000
    endloop
  endfacet
  facet normal  1.000000e+000  0.000000e+000  0.000000e+000
    outer loop
      vertex  4.853906e+001 -1.646024e+001  3.000000e+000
      vertex  4.853906e+001 -1.646024e+001  1.200000e+000
      vertex  4.853906e+001 -1.446024e+001  6.000000e+000
    endloop
  endfacet
  facet normal  1.000000e+000  0.000000e+000  0.000000e+000
    outer loop
      vertex  4.853906e+001 -1.446024e+001  6.000000e+000
      vertex  4.853906e+001 -1.646024e+001  1.200000e+000
      vertex  4.853906e+001 -1.526024e+001  1.776357e-015
    endloop
  endfacet
  facet normal  0.000000e+000 -7.071068e-001 -7.071067e-001
    outer loop
      vertex  4.853906e+001 -1.646024e+001  1.200000e+000
      vertex -3.146094e+001 -1.646024e+001  1.200000e+000
      vertex  4.853906e+001 -1.526024e+001  1.776357e-015
    endloop
  endfacet
  facet normal  1.570092e-017 -7.071069e-001 -7.071067e-001
    outer loop
      vertex  4.853906e+001 -1.526024e+001  1.776357e-015
      vertex -3.146094e+001 -1.646024e+001  1.200000e+000
      vertex -3.146094e+001 -1.526024e+001  0.000000e+000
    endloop
  endfacet
  facet normal  3.140186e-017  7.071066e-001 -7.071070e-001
    outer loop
      vertex  4.853906e+001  1.683976e+001  3.552714e-015
      vertex -3.146094e+001  1.683976e+001  0.000000e+000
      vertex  4.853906e+001  1.803976e+001  1.200000e+000
    endloop
  endfacet
  facet normal  0.000000e+000  7.071066e-001 -7.071070e-001
    outer loop
      vertex  4.853906e+001  1.803976e+001  1.200000e+000
      vertex -3.146094e+001  1.683976e+001  0.000000e+000
      vertex -3.146094e+001  1.803976e+001  1.200000e+000
    endloop
  endfacet
  facet normal  0.000000e+000  0.000000e+000  1.000000e+000
    outer loop
      vertex -3.146094e+001 -1.246024e+001  3.000000e+000
      vertex  4.853906e+001 -1.246024e+001  3.000000e+000
      vertex -3.146094e+001  1.403976e+001  3.000000e+000
    endloop
  endfacet
  facet normal  -0.000000e+000  0.000000e+000  1.000000e+000
    outer loop
      vertex -3.146094e+001  1.403976e+001  3.000000e+000
      vertex  4.853906e+001 -1.246024e+001  3.000000e+000
      vertex  4.853906e+001  1.403976e+001  3.000000e+000
    endloop
  endfacet
  facet normal  -0.000000e+000  8.320503e-001  5.547003e-001
    outer loop
      vertex  4.853906e+001  1.803976e+001  3.000000e+000
      vertex -3.146094e+001  1.803976e+001  3.000000e+000
      vertex  4.853906e+001  1.603976e+001  6.000000e+000
    endloop
  endfacet
  facet normal  0.000000e+000  8.320503e-001  5.547003e-001
    outer loop
      vertex  4.853906e+001  1.603976e+001  6.000000e+000
      vertex -3.146094e+001  1.803976e+001  3.000000e+000
      vertex -3.146094e+001  1.603976e+001  6.000000e+000
    endloop
  endfacet
  facet normal  0.000000e+000 -7.071068e-001 -7.071068e-001
    outer loop
      vertex  4.853906e+001  1.103976e+001  6.000000e+000
      vertex -3.146094e+001  1.103976e+001  6.000000e+000
      vertex  4.853906e+001  1.403976e+001  3.000000e+000
    endloop
  endfacet
  facet normal  -0.000000e+000 -7.071068e-001 -7.071068e-001
    outer loop
      vertex  4.853906e+001  1.403976e+001  3.000000e+000
      vertex -3.146094e+001  1.103976e+001  6.000000e+000
      vertex -3.146094e+001  1.403976e+001  3.000000e+000
    endloop
  endfacet
  facet normal  0.000000e+000 -8.320503e-001  5.547003e-001
    outer loop
      vertex  4.853906e+001 -1.646024e+001  3.000000e+000
      vertex  4.853906e+001 -1.446024e+001  6.000000e+000
      vertex -3.146094e+001 -1.646024e+001  3.000000e+000
    endloop
  endfacet
  facet normal  0.000000e+000 -8.320503e-001  5.547003e-001
    outer loop
      vertex -3.146094e+001 -1.646024e+001  3.000000e+000
      vertex  4.853906e+001 -1.446024e+001  6.000000e+000
      vertex -3.146094e+001 -1.446024e+001  6.000000e+000
    endloop
  endfacet
  facet normal  0.000000e+000  7.071068e-001 -7.071068e-001
    outer loop
      vertex  4.853906e+001 -9.460243e+000  6.000000e+000
      vertex  4.853906e+001 -1.246024e+001  3.000000e+000
      vertex -3.146094e+001 -9.460243e+000  6.000000e+000
    endloop
  endfacet
  facet normal  0.000000e+000  7.071068e-001 -7.071068e-001
    outer loop
      vertex -3.146094e+001 -9.460243e+000  6.000000e+000
      vertex  4.853906e+001 -1.246024e+001  3.000000e+000
      vertex -3.146094e+001 -1.246024e+001  3.000000e+000
    endloop
  endfacet
  facet normal  -0.000000e+000  0.000000e+000  1.000000e+000
    outer loop
      vertex  4.853906e+001 -9.460243e+000  6.000000e+000
      vertex -3.146094e+001 -9.460243e+000  6.000000e+000
      vertex  4.853906e+001 -1.446024e+001  6.000000e+000
    endloop
  endfacet
  facet normal  0.000000e+000  0.000000e+000  1.000000e+000
    outer loop
      vertex  4.853906e+001 -1.446024e+001  6.000000e+000
      vertex -3.146094e+001 -9.460243e+000  6.000000e+000
      vertex -3.146094e+001 -1.446024e+001  6.000000e+000
    endloop
  endfacet
  facet normal  -0.000000e+000  0.000000e+000  1.000000e+000
    outer loop
      vertex  4.853906e+001  1.603976e+001  6.000000e+000
      vertex -3.146094e+001  1.603976e+001  6.000000e+000
      vertex  4.853906e+001  1.103976e+001  6.000000e+000
    endloop
  endfacet
  facet normal  0.000000e+000  0.000000e+000  1.000000e+000
    outer loop
      vertex  4.853906e+001  1.103976e+001  6.000000e+000
      vertex -3.146094e+001  1.603976e+001  6.000000e+000
      vertex -3.146094e+001  1.103976e+001  6.000000e+000
    endloop
  endfacet
endsolid CATIA STL
