solid CATIA STL
  facet normal  0.000000e+000  1.000000e+000  0.000000e+000
    outer loop
      vertex -8.025000e+001  1.500000e+000  6.500000e+000
      vertex -2.438388e+001  1.500000e+000  5.616117e+000
      vertex -2.350000e+001  1.500000e+000  5.250000e+000
    endloop
  endfacet
  facet normal  0.000000e+000  1.000000e+000  0.000000e+000
    outer loop
      vertex -8.025000e+001  1.500000e+000  6.500000e+000
      vertex -2.475000e+001  1.500000e+000  6.500000e+000
      vertex -2.438388e+001  1.500000e+000  5.616117e+000
    endloop
  endfacet
  facet normal  0.000000e+000  1.000000e+000  0.000000e+000
    outer loop
      vertex -8.025000e+001  1.500000e+000  5.550000e+001
      vertex -2.350000e+001  1.500000e+000  5.675000e+001
      vertex -2.438388e+001  1.500000e+000  5.638388e+001
    endloop
  endfacet
  facet normal  0.000000e+000  1.000000e+000  0.000000e+000
    outer loop
      vertex -8.025000e+001  1.500000e+000  5.550000e+001
      vertex -2.438388e+001  1.500000e+000  5.638388e+001
      vertex -2.475000e+001  1.500000e+000  5.550000e+001
    endloop
  endfacet
  facet normal  0.000000e+000  1.000000e+000  0.000000e+000
    outer loop
      vertex -8.025000e+001  1.500000e+000  5.550000e+001
      vertex -2.475000e+001  1.500000e+000  5.550000e+001
      vertex -2.475000e+001  1.500000e+000  6.500000e+000
    endloop
  endfacet
  facet normal  0.000000e+000  1.000000e+000  0.000000e+000
    outer loop
      vertex -8.025000e+001  1.500000e+000  5.550000e+001
      vertex -2.475000e+001  1.500000e+000  6.500000e+000
      vertex -8.025000e+001  1.500000e+000  6.500000e+000
    endloop
  endfacet
  facet normal  0.000000e+000  1.000000e+000  -0.000000e+000
    outer loop
      vertex -8.025000e+001  1.500000e+000  5.550000e+001
      vertex -8.025000e+001  1.500000e+000  6.500000e+000
      vertex -8.061612e+001  1.500000e+000  7.383883e+000
    endloop
  endfacet
  facet normal  0.000000e+000  1.000000e+000  0.000000e+000
    outer loop
      vertex -8.025000e+001  1.500000e+000  5.550000e+001
      vertex -8.061612e+001  1.500000e+000  7.383883e+000
      vertex -8.061612e+001  1.500000e+000  5.461612e+001
    endloop
  endfacet
  facet normal  -0.000000e+000  1.000000e+000  0.000000e+000
    outer loop
      vertex  0.000000e+000  1.500000e+000  3.000000e+000
      vertex -8.150000e+001  1.500000e+000  5.250000e+000
      vertex -8.061612e+001  1.500000e+000  5.616117e+000
    endloop
  endfacet
  facet normal  -0.000000e+000  1.000000e+000  0.000000e+000
    outer loop
      vertex  0.000000e+000  1.500000e+000  3.000000e+000
      vertex -8.061612e+001  1.500000e+000  5.616117e+000
      vertex -8.025000e+001  1.500000e+000  6.500000e+000
    endloop
  endfacet
  facet normal  0.000000e+000  1.000000e+000  0.000000e+000
    outer loop
      vertex  0.000000e+000  1.500000e+000  3.000000e+000
      vertex -8.025000e+001  1.500000e+000  6.500000e+000
      vertex -2.350000e+001  1.500000e+000  5.250000e+000
    endloop
  endfacet
  facet normal  -0.000000e+000  1.000000e+000  0.000000e+000
    outer loop
      vertex  0.000000e+000  1.500000e+000  3.000000e+000
      vertex -2.350000e+001  1.500000e+000  5.250000e+000
      vertex -2.261612e+001  1.500000e+000  5.616117e+000
    endloop
  endfacet
  facet normal  -0.000000e+000  1.000000e+000  0.000000e+000
    outer loop
      vertex  0.000000e+000  1.500000e+000  3.000000e+000
      vertex -2.261612e+001  1.500000e+000  5.616117e+000
      vertex -2.225000e+001  1.500000e+000  6.500000e+000
    endloop
  endfacet
  facet normal  -0.000000e+000  1.000000e+000  0.000000e+000
    outer loop
      vertex  0.000000e+000  1.500000e+000  3.000000e+000
      vertex -2.225000e+001  1.500000e+000  6.500000e+000
      vertex -2.225000e+001  1.500000e+000  5.550000e+001
    endloop
  endfacet
  facet normal  -0.000000e+000  1.000000e+000  0.000000e+000
    outer loop
      vertex  0.000000e+000  1.500000e+000  3.000000e+000
      vertex -2.225000e+001  1.500000e+000  5.550000e+001
      vertex  0.000000e+000  1.500000e+000  6.000000e+001
    endloop
  endfacet
  facet normal  0.000000e+000  9.999999e-001  -0.000000e+000
    outer loop
      vertex  0.000000e+000  1.500000e+000  6.000000e+001
      vertex -2.225000e+001  1.500000e+000  5.550000e+001
      vertex -2.261612e+001  1.500000e+000  5.638388e+001
    endloop
  endfacet
  facet normal  0.000000e+000  1.000000e+000  -0.000000e+000
    outer loop
      vertex  0.000000e+000  1.500000e+000  6.000000e+001
      vertex -2.261612e+001  1.500000e+000  5.638388e+001
      vertex -2.350000e+001  1.500000e+000  5.675000e+001
    endloop
  endfacet
  facet normal  0.000000e+000  1.000000e+000  -0.000000e+000
    outer loop
      vertex  0.000000e+000  1.500000e+000  6.000000e+001
      vertex -2.350000e+001  1.500000e+000  5.675000e+001
      vertex -8.025000e+001  1.500000e+000  5.550000e+001
    endloop
  endfacet
  facet normal  0.000000e+000  1.000000e+000  -0.000000e+000
    outer loop
      vertex  0.000000e+000  1.500000e+000  6.000000e+001
      vertex -8.025000e+001  1.500000e+000  5.550000e+001
      vertex -8.061612e+001  1.500000e+000  5.638388e+001
    endloop
  endfacet
  facet normal  0.000000e+000  1.000000e+000  -0.000000e+000
    outer loop
      vertex  0.000000e+000  1.500000e+000  6.000000e+001
      vertex -8.061612e+001  1.500000e+000  5.638388e+001
      vertex -8.150000e+001  1.500000e+000  5.675000e+001
    endloop
  endfacet
  facet normal  0.000000e+000  1.000000e+000  -0.000000e+000
    outer loop
      vertex  0.000000e+000  1.500000e+000  6.000000e+001
      vertex -8.150000e+001  1.500000e+000  5.675000e+001
      vertex -8.600000e+001  1.500000e+000  6.000000e+001
    endloop
  endfacet
  facet normal  0.000000e+000  1.000000e+000  0.000000e+000
    outer loop
      vertex -8.600000e+001  1.500000e+000  6.000000e+001
      vertex -8.150000e+001  1.500000e+000  5.675000e+001
      vertex -8.238388e+001  1.500000e+000  5.638388e+001
    endloop
  endfacet
  facet normal  0.000000e+000  1.000000e+000  0.000000e+000
    outer loop
      vertex -8.600000e+001  1.500000e+000  6.000000e+001
      vertex -8.238388e+001  1.500000e+000  5.638388e+001
      vertex -8.275000e+001  1.500000e+000  5.550000e+001
    endloop
  endfacet
  facet normal  0.000000e+000  1.000000e+000  0.000000e+000
    outer loop
      vertex -8.600000e+001  1.500000e+000  6.000000e+001
      vertex -8.275000e+001  1.500000e+000  5.550000e+001
      vertex -8.275000e+001  1.500000e+000  6.500000e+000
    endloop
  endfacet
  facet normal  0.000000e+000  9.999999e-001  0.000000e+000
    outer loop
      vertex -8.600000e+001  1.500000e+000  6.000000e+001
      vertex -8.275000e+001  1.500000e+000  6.500000e+000
      vertex -8.600000e+001  1.500000e+000  3.000000e+000
    endloop
  endfacet
  facet normal  0.000000e+000  1.000000e+000  0.000000e+000
    outer loop
      vertex -8.600000e+001  1.500000e+000  3.000000e+000
      vertex -8.275000e+001  1.500000e+000  6.500000e+000
      vertex -8.238388e+001  1.500000e+000  5.616117e+000
    endloop
  endfacet
  facet normal  0.000000e+000  1.000000e+000  0.000000e+000
    outer loop
      vertex -8.600000e+001  1.500000e+000  3.000000e+000
      vertex -8.238388e+001  1.500000e+000  5.616117e+000
      vertex -8.150000e+001  1.500000e+000  5.250000e+000
    endloop
  endfacet
  facet normal  0.000000e+000  1.000000e+000  0.000000e+000
    outer loop
      vertex -8.600000e+001  1.500000e+000  3.000000e+000
      vertex -8.150000e+001  1.500000e+000  5.250000e+000
      vertex  0.000000e+000  1.500000e+000  3.000000e+000
    endloop
  endfacet
  facet normal  0.000000e+000  1.000000e+000  0.000000e+000
    outer loop
      vertex -8.275000e+001  1.500000e+000  6.500000e+000
      vertex -8.275000e+001  1.500000e+000  5.550000e+001
      vertex -8.238388e+001  1.500000e+000  7.383883e+000
    endloop
  endfacet
  facet normal  0.000000e+000  1.000000e+000  -0.000000e+000
    outer loop
      vertex -8.238388e+001  1.500000e+000  7.383883e+000
      vertex -8.275000e+001  1.500000e+000  5.550000e+001
      vertex -8.238388e+001  1.500000e+000  5.461612e+001
    endloop
  endfacet
  facet normal  0.000000e+000  1.000000e+000  0.000000e+000
    outer loop
      vertex -8.238388e+001  1.500000e+000  7.383883e+000
      vertex -8.238388e+001  1.500000e+000  5.461612e+001
      vertex -8.150000e+001  1.500000e+000  7.750000e+000
    endloop
  endfacet
  facet normal  0.000000e+000  1.000000e+000  -0.000000e+000
    outer loop
      vertex -8.150000e+001  1.500000e+000  7.750000e+000
      vertex -8.238388e+001  1.500000e+000  5.461612e+001
      vertex -8.150000e+001  1.500000e+000  5.425000e+001
    endloop
  endfacet
  facet normal  0.000000e+000  1.000000e+000  0.000000e+000
    outer loop
      vertex -8.150000e+001  1.500000e+000  7.750000e+000
      vertex -8.150000e+001  1.500000e+000  5.425000e+001
      vertex -8.061612e+001  1.500000e+000  7.383883e+000
    endloop
  endfacet
  facet normal  0.000000e+000  1.000000e+000  -0.000000e+000
    outer loop
      vertex -8.061612e+001  1.500000e+000  7.383883e+000
      vertex -8.150000e+001  1.500000e+000  5.425000e+001
      vertex -8.061612e+001  1.500000e+000  5.461612e+001
    endloop
  endfacet
  facet normal  0.000000e+000  1.000000e+000  0.000000e+000
    outer loop
      vertex -2.475000e+001  1.500000e+000  6.500000e+000
      vertex -2.475000e+001  1.500000e+000  5.550000e+001
      vertex -2.438388e+001  1.500000e+000  7.383883e+000
    endloop
  endfacet
  facet normal  0.000000e+000  1.000000e+000  -0.000000e+000
    outer loop
      vertex -2.438388e+001  1.500000e+000  7.383883e+000
      vertex -2.475000e+001  1.500000e+000  5.550000e+001
      vertex -2.438388e+001  1.500000e+000  5.461612e+001
    endloop
  endfacet
  facet normal  0.000000e+000  1.000000e+000  0.000000e+000
    outer loop
      vertex -2.438388e+001  1.500000e+000  7.383883e+000
      vertex -2.438388e+001  1.500000e+000  5.461612e+001
      vertex -2.350000e+001  1.500000e+000  7.750000e+000
    endloop
  endfacet
  facet normal  0.000000e+000  1.000000e+000  -0.000000e+000
    outer loop
      vertex -2.350000e+001  1.500000e+000  7.750000e+000
      vertex -2.438388e+001  1.500000e+000  5.461612e+001
      vertex -2.350000e+001  1.500000e+000  5.425000e+001
    endloop
  endfacet
  facet normal  0.000000e+000  1.000000e+000  0.000000e+000
    outer loop
      vertex -2.350000e+001  1.500000e+000  7.750000e+000
      vertex -2.350000e+001  1.500000e+000  5.425000e+001
      vertex -2.261612e+001  1.500000e+000  7.383883e+000
    endloop
  endfacet
  facet normal  0.000000e+000  1.000000e+000  -0.000000e+000
    outer loop
      vertex -2.261612e+001  1.500000e+000  7.383883e+000
      vertex -2.350000e+001  1.500000e+000  5.425000e+001
      vertex -2.261612e+001  1.500000e+000  5.461612e+001
    endloop
  endfacet
  facet normal  0.000000e+000  1.000000e+000  0.000000e+000
    outer loop
      vertex -2.261612e+001  1.500000e+000  7.383883e+000
      vertex -2.261612e+001  1.500000e+000  5.461612e+001
      vertex -2.225000e+001  1.500000e+000  6.500000e+000
    endloop
  endfacet
  facet normal  0.000000e+000  1.000000e+000  -0.000000e+000
    outer loop
      vertex -2.225000e+001  1.500000e+000  6.500000e+000
      vertex -2.261612e+001  1.500000e+000  5.461612e+001
      vertex -2.225000e+001  1.500000e+000  5.550000e+001
    endloop
  endfacet
  facet normal  0.000000e+000 -1.000000e+000  0.000000e+000
    outer loop
      vertex -8.025000e+001 -1.500000e+000  6.500000e+000
      vertex -2.438388e+001 -1.500000e+000  5.616117e+000
      vertex -2.475000e+001 -1.500000e+000  6.500000e+000
    endloop
  endfacet
  facet normal  0.000000e+000 -1.000000e+000  0.000000e+000
    outer loop
      vertex -8.025000e+001 -1.500000e+000  6.500000e+000
      vertex -2.350000e+001 -1.500000e+000  5.250000e+000
      vertex -2.438388e+001 -1.500000e+000  5.616117e+000
    endloop
  endfacet
  facet normal  0.000000e+000 -1.000000e+000  0.000000e+000
    outer loop
      vertex -8.025000e+001 -1.500000e+000  5.550000e+001
      vertex -8.061612e+001 -1.500000e+000  5.461612e+001
      vertex -8.061612e+001 -1.500000e+000  7.383883e+000
    endloop
  endfacet
  facet normal  0.000000e+000 -1.000000e+000  0.000000e+000
    outer loop
      vertex -8.025000e+001 -1.500000e+000  5.550000e+001
      vertex -8.061612e+001 -1.500000e+000  7.383883e+000
      vertex -8.025000e+001 -1.500000e+000  6.500000e+000
    endloop
  endfacet
  facet normal  0.000000e+000 -1.000000e+000  0.000000e+000
    outer loop
      vertex -8.025000e+001 -1.500000e+000  5.550000e+001
      vertex -8.025000e+001 -1.500000e+000  6.500000e+000
      vertex -2.475000e+001 -1.500000e+000  6.500000e+000
    endloop
  endfacet
  facet normal  0.000000e+000 -1.000000e+000  0.000000e+000
    outer loop
      vertex -8.025000e+001 -1.500000e+000  5.550000e+001
      vertex -2.475000e+001 -1.500000e+000  6.500000e+000
      vertex -2.475000e+001 -1.500000e+000  5.550000e+001
    endloop
  endfacet
  facet normal  0.000000e+000 -1.000000e+000  0.000000e+000
    outer loop
      vertex -8.025000e+001 -1.500000e+000  5.550000e+001
      vertex -2.475000e+001 -1.500000e+000  5.550000e+001
      vertex -2.438388e+001 -1.500000e+000  5.638388e+001
    endloop
  endfacet
  facet normal  -0.000000e+000 -1.000000e+000  0.000000e+000
    outer loop
      vertex -8.025000e+001 -1.500000e+000  5.550000e+001
      vertex -2.438388e+001 -1.500000e+000  5.638388e+001
      vertex -2.350000e+001 -1.500000e+000  5.675000e+001
    endloop
  endfacet
  facet normal  0.000000e+000 -1.000000e+000  0.000000e+000
    outer loop
      vertex  0.000000e+000 -1.500000e+000  6.000000e+001
      vertex -8.150000e+001 -1.500000e+000  5.675000e+001
      vertex -8.061612e+001 -1.500000e+000  5.638388e+001
    endloop
  endfacet
  facet normal  0.000000e+000 -1.000000e+000  0.000000e+000
    outer loop
      vertex  0.000000e+000 -1.500000e+000  6.000000e+001
      vertex -8.061612e+001 -1.500000e+000  5.638388e+001
      vertex -8.025000e+001 -1.500000e+000  5.550000e+001
    endloop
  endfacet
  facet normal  0.000000e+000 -1.000000e+000  0.000000e+000
    outer loop
      vertex  0.000000e+000 -1.500000e+000  6.000000e+001
      vertex -8.025000e+001 -1.500000e+000  5.550000e+001
      vertex -2.350000e+001 -1.500000e+000  5.675000e+001
    endloop
  endfacet
  facet normal  0.000000e+000 -1.000000e+000  0.000000e+000
    outer loop
      vertex  0.000000e+000 -1.500000e+000  6.000000e+001
      vertex -2.350000e+001 -1.500000e+000  5.675000e+001
      vertex -2.261612e+001 -1.500000e+000  5.638388e+001
    endloop
  endfacet
  facet normal  0.000000e+000 -9.999999e-001  0.000000e+000
    outer loop
      vertex  0.000000e+000 -1.500000e+000  6.000000e+001
      vertex -2.261612e+001 -1.500000e+000  5.638388e+001
      vertex -2.225000e+001 -1.500000e+000  5.550000e+001
    endloop
  endfacet
  facet normal  0.000000e+000 -1.000000e+000  0.000000e+000
    outer loop
      vertex  0.000000e+000 -1.500000e+000  6.000000e+001
      vertex -2.225000e+001 -1.500000e+000  5.550000e+001
      vertex -2.225000e+001 -1.500000e+000  6.500000e+000
    endloop
  endfacet
  facet normal  0.000000e+000 -1.000000e+000  0.000000e+000
    outer loop
      vertex  0.000000e+000 -1.500000e+000  6.000000e+001
      vertex -2.225000e+001 -1.500000e+000  6.500000e+000
      vertex  0.000000e+000 -1.500000e+000  3.000000e+000
    endloop
  endfacet
  facet normal  0.000000e+000 -1.000000e+000  -0.000000e+000
    outer loop
      vertex  0.000000e+000 -1.500000e+000  3.000000e+000
      vertex -2.225000e+001 -1.500000e+000  6.500000e+000
      vertex -2.261612e+001 -1.500000e+000  5.616117e+000
    endloop
  endfacet
  facet normal  0.000000e+000 -1.000000e+000  -0.000000e+000
    outer loop
      vertex  0.000000e+000 -1.500000e+000  3.000000e+000
      vertex -2.261612e+001 -1.500000e+000  5.616117e+000
      vertex -2.350000e+001 -1.500000e+000  5.250000e+000
    endloop
  endfacet
  facet normal  -0.000000e+000 -1.000000e+000  -0.000000e+000
    outer loop
      vertex  0.000000e+000 -1.500000e+000  3.000000e+000
      vertex -2.350000e+001 -1.500000e+000  5.250000e+000
      vertex -8.025000e+001 -1.500000e+000  6.500000e+000
    endloop
  endfacet
  facet normal  0.000000e+000 -1.000000e+000  -0.000000e+000
    outer loop
      vertex  0.000000e+000 -1.500000e+000  3.000000e+000
      vertex -8.025000e+001 -1.500000e+000  6.500000e+000
      vertex -8.061612e+001 -1.500000e+000  5.616117e+000
    endloop
  endfacet
  facet normal  0.000000e+000 -1.000000e+000  -0.000000e+000
    outer loop
      vertex  0.000000e+000 -1.500000e+000  3.000000e+000
      vertex -8.061612e+001 -1.500000e+000  5.616117e+000
      vertex -8.150000e+001 -1.500000e+000  5.250000e+000
    endloop
  endfacet
  facet normal  0.000000e+000 -1.000000e+000  -0.000000e+000
    outer loop
      vertex  0.000000e+000 -1.500000e+000  3.000000e+000
      vertex -8.150000e+001 -1.500000e+000  5.250000e+000
      vertex -8.600000e+001 -1.500000e+000  3.000000e+000
    endloop
  endfacet
  facet normal  -0.000000e+000 -1.000000e+000  0.000000e+000
    outer loop
      vertex -8.600000e+001 -1.500000e+000  3.000000e+000
      vertex -8.150000e+001 -1.500000e+000  5.250000e+000
      vertex -8.238388e+001 -1.500000e+000  5.616117e+000
    endloop
  endfacet
  facet normal  -0.000000e+000 -1.000000e+000  0.000000e+000
    outer loop
      vertex -8.600000e+001 -1.500000e+000  3.000000e+000
      vertex -8.238388e+001 -1.500000e+000  5.616117e+000
      vertex -8.275000e+001 -1.500000e+000  6.500000e+000
    endloop
  endfacet
  facet normal  -0.000000e+000 -1.000000e+000  0.000000e+000
    outer loop
      vertex -8.600000e+001 -1.500000e+000  3.000000e+000
      vertex -8.275000e+001 -1.500000e+000  6.500000e+000
      vertex -8.275000e+001 -1.500000e+000  5.550000e+001
    endloop
  endfacet
  facet normal  -0.000000e+000 -9.999999e-001  0.000000e+000
    outer loop
      vertex -8.600000e+001 -1.500000e+000  3.000000e+000
      vertex -8.275000e+001 -1.500000e+000  5.550000e+001
      vertex -8.600000e+001 -1.500000e+000  6.000000e+001
    endloop
  endfacet
  facet normal  0.000000e+000 -1.000000e+000  0.000000e+000
    outer loop
      vertex -8.600000e+001 -1.500000e+000  6.000000e+001
      vertex -8.275000e+001 -1.500000e+000  5.550000e+001
      vertex -8.238388e+001 -1.500000e+000  5.638388e+001
    endloop
  endfacet
  facet normal  0.000000e+000 -1.000000e+000  0.000000e+000
    outer loop
      vertex -8.600000e+001 -1.500000e+000  6.000000e+001
      vertex -8.238388e+001 -1.500000e+000  5.638388e+001
      vertex -8.150000e+001 -1.500000e+000  5.675000e+001
    endloop
  endfacet
  facet normal  0.000000e+000 -1.000000e+000  0.000000e+000
    outer loop
      vertex -8.600000e+001 -1.500000e+000  6.000000e+001
      vertex -8.150000e+001 -1.500000e+000  5.675000e+001
      vertex  0.000000e+000 -1.500000e+000  6.000000e+001
    endloop
  endfacet
  facet normal  0.000000e+000 -1.000000e+000  0.000000e+000
    outer loop
      vertex -8.275000e+001 -1.500000e+000  5.550000e+001
      vertex -8.275000e+001 -1.500000e+000  6.500000e+000
      vertex -8.238388e+001 -1.500000e+000  5.461612e+001
    endloop
  endfacet
  facet normal  0.000000e+000 -1.000000e+000  -0.000000e+000
    outer loop
      vertex -8.238388e+001 -1.500000e+000  5.461612e+001
      vertex -8.275000e+001 -1.500000e+000  6.500000e+000
      vertex -8.238388e+001 -1.500000e+000  7.383883e+000
    endloop
  endfacet
  facet normal  0.000000e+000 -1.000000e+000  0.000000e+000
    outer loop
      vertex -8.238388e+001 -1.500000e+000  5.461612e+001
      vertex -8.238388e+001 -1.500000e+000  7.383883e+000
      vertex -8.150000e+001 -1.500000e+000  5.425000e+001
    endloop
  endfacet
  facet normal  0.000000e+000 -1.000000e+000  -0.000000e+000
    outer loop
      vertex -8.150000e+001 -1.500000e+000  5.425000e+001
      vertex -8.238388e+001 -1.500000e+000  7.383883e+000
      vertex -8.150000e+001 -1.500000e+000  7.750000e+000
    endloop
  endfacet
  facet normal  0.000000e+000 -1.000000e+000  0.000000e+000
    outer loop
      vertex -8.150000e+001 -1.500000e+000  5.425000e+001
      vertex -8.150000e+001 -1.500000e+000  7.750000e+000
      vertex -8.061612e+001 -1.500000e+000  5.461612e+001
    endloop
  endfacet
  facet normal  0.000000e+000 -1.000000e+000  -0.000000e+000
    outer loop
      vertex -8.061612e+001 -1.500000e+000  5.461612e+001
      vertex -8.150000e+001 -1.500000e+000  7.750000e+000
      vertex -8.061612e+001 -1.500000e+000  7.383883e+000
    endloop
  endfacet
  facet normal  0.000000e+000 -1.000000e+000  0.000000e+000
    outer loop
      vertex -2.475000e+001 -1.500000e+000  5.550000e+001
      vertex -2.475000e+001 -1.500000e+000  6.500000e+000
      vertex -2.438388e+001 -1.500000e+000  5.461612e+001
    endloop
  endfacet
  facet normal  0.000000e+000 -1.000000e+000  -0.000000e+000
    outer loop
      vertex -2.438388e+001 -1.500000e+000  5.461612e+001
      vertex -2.475000e+001 -1.500000e+000  6.500000e+000
      vertex -2.438388e+001 -1.500000e+000  7.383883e+000
    endloop
  endfacet
  facet normal  0.000000e+000 -1.000000e+000  0.000000e+000
    outer loop
      vertex -2.438388e+001 -1.500000e+000  5.461612e+001
      vertex -2.438388e+001 -1.500000e+000  7.383883e+000
      vertex -2.350000e+001 -1.500000e+000  5.425000e+001
    endloop
  endfacet
  facet normal  0.000000e+000 -1.000000e+000  -0.000000e+000
    outer loop
      vertex -2.350000e+001 -1.500000e+000  5.425000e+001
      vertex -2.438388e+001 -1.500000e+000  7.383883e+000
      vertex -2.350000e+001 -1.500000e+000  7.750000e+000
    endloop
  endfacet
  facet normal  0.000000e+000 -1.000000e+000  0.000000e+000
    outer loop
      vertex -2.350000e+001 -1.500000e+000  5.425000e+001
      vertex -2.350000e+001 -1.500000e+000  7.750000e+000
      vertex -2.261612e+001 -1.500000e+000  5.461612e+001
    endloop
  endfacet
  facet normal  0.000000e+000 -1.000000e+000  -0.000000e+000
    outer loop
      vertex -2.261612e+001 -1.500000e+000  5.461612e+001
      vertex -2.350000e+001 -1.500000e+000  7.750000e+000
      vertex -2.261612e+001 -1.500000e+000  7.383883e+000
    endloop
  endfacet
  facet normal  0.000000e+000 -1.000000e+000  0.000000e+000
    outer loop
      vertex -2.261612e+001 -1.500000e+000  5.461612e+001
      vertex -2.261612e+001 -1.500000e+000  7.383883e+000
      vertex -2.225000e+001 -1.500000e+000  5.550000e+001
    endloop
  endfacet
  facet normal  0.000000e+000 -1.000000e+000  -0.000000e+000
    outer loop
      vertex -2.225000e+001 -1.500000e+000  5.550000e+001
      vertex -2.261612e+001 -1.500000e+000  7.383883e+000
      vertex -2.225000e+001 -1.500000e+000  6.500000e+000
    endloop
  endfacet
  facet normal  3.826822e-001  0.000000e+000  9.238800e-001
    outer loop
      vertex -2.350000e+001 -1.500000e+000  5.425000e+001
      vertex -2.438388e+001  1.500000e+000  5.461612e+001
      vertex -2.438388e+001 -1.500000e+000  5.461612e+001
    endloop
  endfacet
  facet normal  9.238800e-001  -0.000000e+000  3.826822e-001
    outer loop
      vertex -2.438388e+001 -1.500000e+000  5.461612e+001
      vertex -2.438388e+001  1.500000e+000  5.461612e+001
      vertex -2.475000e+001  1.500000e+000  5.550000e+001
    endloop
  endfacet
  facet normal  9.238800e-001  0.000000e+000  3.826822e-001
    outer loop
      vertex -2.438388e+001 -1.500000e+000  5.461612e+001
      vertex -2.475000e+001  1.500000e+000  5.550000e+001
      vertex -2.475000e+001 -1.500000e+000  5.550000e+001
    endloop
  endfacet
  facet normal  3.826822e-001  -0.000000e+000  9.238800e-001
    outer loop
      vertex -2.438388e+001  1.500000e+000  5.461612e+001
      vertex -2.350000e+001 -1.500000e+000  5.425000e+001
      vertex -2.350000e+001  1.500000e+000  5.425000e+001
    endloop
  endfacet
  facet normal -3.826822e-001  0.000000e+000  9.238800e-001
    outer loop
      vertex -2.350000e+001  1.500000e+000  5.425000e+001
      vertex -2.350000e+001 -1.500000e+000  5.425000e+001
      vertex -2.261612e+001 -1.500000e+000  5.461612e+001
    endloop
  endfacet
  facet normal -3.826822e-001  0.000000e+000  9.238800e-001
    outer loop
      vertex -2.350000e+001  1.500000e+000  5.425000e+001
      vertex -2.261612e+001 -1.500000e+000  5.461612e+001
      vertex -2.261612e+001  1.500000e+000  5.461612e+001
    endloop
  endfacet
  facet normal -9.238800e-001  0.000000e+000  3.826822e-001
    outer loop
      vertex -2.261612e+001  1.500000e+000  5.461612e+001
      vertex -2.261612e+001 -1.500000e+000  5.461612e+001
      vertex -2.225000e+001 -1.500000e+000  5.550000e+001
    endloop
  endfacet
  facet normal -9.238800e-001  0.000000e+000  3.826822e-001
    outer loop
      vertex -2.261612e+001  1.500000e+000  5.461612e+001
      vertex -2.225000e+001 -1.500000e+000  5.550000e+001
      vertex -2.225000e+001  1.500000e+000  5.550000e+001
    endloop
  endfacet
  facet normal -3.826822e-001  -0.000000e+000 -9.238800e-001
    outer loop
      vertex -2.350000e+001 -1.500000e+000  5.675000e+001
      vertex -2.261612e+001  1.500000e+000  5.638388e+001
      vertex -2.261612e+001 -1.500000e+000  5.638388e+001
    endloop
  endfacet
  facet normal -9.238800e-001  0.000000e+000 -3.826822e-001
    outer loop
      vertex -2.261612e+001 -1.500000e+000  5.638388e+001
      vertex -2.261612e+001  1.500000e+000  5.638388e+001
      vertex -2.225000e+001  1.500000e+000  5.550000e+001
    endloop
  endfacet
  facet normal -9.238800e-001  -0.000000e+000 -3.826822e-001
    outer loop
      vertex -2.261612e+001 -1.500000e+000  5.638388e+001
      vertex -2.225000e+001  1.500000e+000  5.550000e+001
      vertex -2.225000e+001 -1.500000e+000  5.550000e+001
    endloop
  endfacet
  facet normal -3.826822e-001  0.000000e+000 -9.238800e-001
    outer loop
      vertex -2.261612e+001  1.500000e+000  5.638388e+001
      vertex -2.350000e+001 -1.500000e+000  5.675000e+001
      vertex -2.350000e+001  1.500000e+000  5.675000e+001
    endloop
  endfacet
  facet normal  3.826822e-001  0.000000e+000 -9.238800e-001
    outer loop
      vertex -2.350000e+001  1.500000e+000  5.675000e+001
      vertex -2.350000e+001 -1.500000e+000  5.675000e+001
      vertex -2.438388e+001 -1.500000e+000  5.638388e+001
    endloop
  endfacet
  facet normal  3.826822e-001  0.000000e+000 -9.238800e-001
    outer loop
      vertex -2.350000e+001  1.500000e+000  5.675000e+001
      vertex -2.438388e+001 -1.500000e+000  5.638388e+001
      vertex -2.438388e+001  1.500000e+000  5.638388e+001
    endloop
  endfacet
  facet normal  9.238800e-001  0.000000e+000 -3.826822e-001
    outer loop
      vertex -2.438388e+001  1.500000e+000  5.638388e+001
      vertex -2.438388e+001 -1.500000e+000  5.638388e+001
      vertex -2.475000e+001 -1.500000e+000  5.550000e+001
    endloop
  endfacet
  facet normal  9.238800e-001  0.000000e+000 -3.826822e-001
    outer loop
      vertex -2.438388e+001  1.500000e+000  5.638388e+001
      vertex -2.475000e+001 -1.500000e+000  5.550000e+001
      vertex -2.475000e+001  1.500000e+000  5.550000e+001
    endloop
  endfacet
  facet normal  3.826831e-001  0.000000e+000  9.238797e-001
    outer loop
      vertex -2.350000e+001 -1.500000e+000  5.250000e+000
      vertex -2.438388e+001  1.500000e+000  5.616117e+000
      vertex -2.438388e+001 -1.500000e+000  5.616117e+000
    endloop
  endfacet
  facet normal  9.238799e-001  -0.000000e+000  3.826826e-001
    outer loop
      vertex -2.438388e+001 -1.500000e+000  5.616117e+000
      vertex -2.438388e+001  1.500000e+000  5.616117e+000
      vertex -2.475000e+001  1.500000e+000  6.500000e+000
    endloop
  endfacet
  facet normal  9.238799e-001  0.000000e+000  3.826826e-001
    outer loop
      vertex -2.438388e+001 -1.500000e+000  5.616117e+000
      vertex -2.475000e+001  1.500000e+000  6.500000e+000
      vertex -2.475000e+001 -1.500000e+000  6.500000e+000
    endloop
  endfacet
  facet normal  3.826831e-001  -0.000000e+000  9.238797e-001
    outer loop
      vertex -2.438388e+001  1.500000e+000  5.616117e+000
      vertex -2.350000e+001 -1.500000e+000  5.250000e+000
      vertex -2.350000e+001  1.500000e+000  5.250000e+000
    endloop
  endfacet
  facet normal -3.826831e-001  0.000000e+000  9.238797e-001
    outer loop
      vertex -2.350000e+001  1.500000e+000  5.250000e+000
      vertex -2.350000e+001 -1.500000e+000  5.250000e+000
      vertex -2.261612e+001 -1.500000e+000  5.616117e+000
    endloop
  endfacet
  facet normal -3.826831e-001  0.000000e+000  9.238797e-001
    outer loop
      vertex -2.350000e+001  1.500000e+000  5.250000e+000
      vertex -2.261612e+001 -1.500000e+000  5.616117e+000
      vertex -2.261612e+001  1.500000e+000  5.616117e+000
    endloop
  endfacet
  facet normal -9.238799e-001  0.000000e+000  3.826826e-001
    outer loop
      vertex -2.261612e+001  1.500000e+000  5.616117e+000
      vertex -2.261612e+001 -1.500000e+000  5.616117e+000
      vertex -2.225000e+001 -1.500000e+000  6.500000e+000
    endloop
  endfacet
  facet normal -9.238799e-001  0.000000e+000  3.826826e-001
    outer loop
      vertex -2.261612e+001  1.500000e+000  5.616117e+000
      vertex -2.225000e+001 -1.500000e+000  6.500000e+000
      vertex -2.225000e+001  1.500000e+000  6.500000e+000
    endloop
  endfacet
  facet normal -3.826831e-001  -0.000000e+000 -9.238797e-001
    outer loop
      vertex -2.350000e+001 -1.500000e+000  7.750000e+000
      vertex -2.261612e+001  1.500000e+000  7.383883e+000
      vertex -2.261612e+001 -1.500000e+000  7.383883e+000
    endloop
  endfacet
  facet normal -9.238799e-001  0.000000e+000 -3.826826e-001
    outer loop
      vertex -2.261612e+001 -1.500000e+000  7.383883e+000
      vertex -2.261612e+001  1.500000e+000  7.383883e+000
      vertex -2.225000e+001  1.500000e+000  6.500000e+000
    endloop
  endfacet
  facet normal -9.238799e-001  -0.000000e+000 -3.826826e-001
    outer loop
      vertex -2.261612e+001 -1.500000e+000  7.383883e+000
      vertex -2.225000e+001  1.500000e+000  6.500000e+000
      vertex -2.225000e+001 -1.500000e+000  6.500000e+000
    endloop
  endfacet
  facet normal -3.826831e-001  0.000000e+000 -9.238797e-001
    outer loop
      vertex -2.261612e+001  1.500000e+000  7.383883e+000
      vertex -2.350000e+001 -1.500000e+000  7.750000e+000
      vertex -2.350000e+001  1.500000e+000  7.750000e+000
    endloop
  endfacet
  facet normal  3.826831e-001  0.000000e+000 -9.238797e-001
    outer loop
      vertex -2.350000e+001  1.500000e+000  7.750000e+000
      vertex -2.350000e+001 -1.500000e+000  7.750000e+000
      vertex -2.438388e+001 -1.500000e+000  7.383883e+000
    endloop
  endfacet
  facet normal  3.826831e-001  0.000000e+000 -9.238797e-001
    outer loop
      vertex -2.350000e+001  1.500000e+000  7.750000e+000
      vertex -2.438388e+001 -1.500000e+000  7.383883e+000
      vertex -2.438388e+001  1.500000e+000  7.383883e+000
    endloop
  endfacet
  facet normal  9.238799e-001  0.000000e+000 -3.826826e-001
    outer loop
      vertex -2.438388e+001  1.500000e+000  7.383883e+000
      vertex -2.438388e+001 -1.500000e+000  7.383883e+000
      vertex -2.475000e+001 -1.500000e+000  6.500000e+000
    endloop
  endfacet
  facet normal  9.238799e-001  0.000000e+000 -3.826826e-001
    outer loop
      vertex -2.438388e+001  1.500000e+000  7.383883e+000
      vertex -2.475000e+001 -1.500000e+000  6.500000e+000
      vertex -2.475000e+001  1.500000e+000  6.500000e+000
    endloop
  endfacet
  facet normal  3.826836e-001  0.000000e+000  9.238794e-001
    outer loop
      vertex -8.150000e+001 -1.500000e+000  5.425000e+001
      vertex -8.238388e+001  1.500000e+000  5.461612e+001
      vertex -8.238388e+001 -1.500000e+000  5.461612e+001
    endloop
  endfacet
  facet normal  9.238786e-001  -0.000000e+000  3.826856e-001
    outer loop
      vertex -8.238388e+001 -1.500000e+000  5.461612e+001
      vertex -8.238388e+001  1.500000e+000  5.461612e+001
      vertex -8.275000e+001  1.500000e+000  5.550000e+001
    endloop
  endfacet
  facet normal  9.238786e-001  0.000000e+000  3.826856e-001
    outer loop
      vertex -8.238388e+001 -1.500000e+000  5.461612e+001
      vertex -8.275000e+001  1.500000e+000  5.550000e+001
      vertex -8.275000e+001 -1.500000e+000  5.550000e+001
    endloop
  endfacet
  facet normal  3.826836e-001  -0.000000e+000  9.238794e-001
    outer loop
      vertex -8.238388e+001  1.500000e+000  5.461612e+001
      vertex -8.150000e+001 -1.500000e+000  5.425000e+001
      vertex -8.150000e+001  1.500000e+000  5.425000e+001
    endloop
  endfacet
  facet normal -3.826836e-001  0.000000e+000  9.238794e-001
    outer loop
      vertex -8.150000e+001  1.500000e+000  5.425000e+001
      vertex -8.150000e+001 -1.500000e+000  5.425000e+001
      vertex -8.061612e+001 -1.500000e+000  5.461612e+001
    endloop
  endfacet
  facet normal -3.826836e-001  0.000000e+000  9.238794e-001
    outer loop
      vertex -8.150000e+001  1.500000e+000  5.425000e+001
      vertex -8.061612e+001 -1.500000e+000  5.461612e+001
      vertex -8.061612e+001  1.500000e+000  5.461612e+001
    endloop
  endfacet
  facet normal -9.238786e-001  0.000000e+000  3.826856e-001
    outer loop
      vertex -8.061612e+001  1.500000e+000  5.461612e+001
      vertex -8.061612e+001 -1.500000e+000  5.461612e+001
      vertex -8.025000e+001 -1.500000e+000  5.550000e+001
    endloop
  endfacet
  facet normal -9.238786e-001  0.000000e+000  3.826856e-001
    outer loop
      vertex -8.061612e+001  1.500000e+000  5.461612e+001
      vertex -8.025000e+001 -1.500000e+000  5.550000e+001
      vertex -8.025000e+001  1.500000e+000  5.550000e+001
    endloop
  endfacet
  facet normal -3.826836e-001  -0.000000e+000 -9.238794e-001
    outer loop
      vertex -8.150000e+001 -1.500000e+000  5.675000e+001
      vertex -8.061612e+001  1.500000e+000  5.638388e+001
      vertex -8.061612e+001 -1.500000e+000  5.638388e+001
    endloop
  endfacet
  facet normal -9.238786e-001  0.000000e+000 -3.826856e-001
    outer loop
      vertex -8.061612e+001 -1.500000e+000  5.638388e+001
      vertex -8.061612e+001  1.500000e+000  5.638388e+001
      vertex -8.025000e+001  1.500000e+000  5.550000e+001
    endloop
  endfacet
  facet normal -9.238786e-001  -0.000000e+000 -3.826856e-001
    outer loop
      vertex -8.061612e+001 -1.500000e+000  5.638388e+001
      vertex -8.025000e+001  1.500000e+000  5.550000e+001
      vertex -8.025000e+001 -1.500000e+000  5.550000e+001
    endloop
  endfacet
  facet normal -3.826836e-001  0.000000e+000 -9.238794e-001
    outer loop
      vertex -8.061612e+001  1.500000e+000  5.638388e+001
      vertex -8.150000e+001 -1.500000e+000  5.675000e+001
      vertex -8.150000e+001  1.500000e+000  5.675000e+001
    endloop
  endfacet
  facet normal  3.826836e-001  0.000000e+000 -9.238794e-001
    outer loop
      vertex -8.150000e+001  1.500000e+000  5.675000e+001
      vertex -8.150000e+001 -1.500000e+000  5.675000e+001
      vertex -8.238388e+001 -1.500000e+000  5.638388e+001
    endloop
  endfacet
  facet normal  3.826836e-001  0.000000e+000 -9.238794e-001
    outer loop
      vertex -8.150000e+001  1.500000e+000  5.675000e+001
      vertex -8.238388e+001 -1.500000e+000  5.638388e+001
      vertex -8.238388e+001  1.500000e+000  5.638388e+001
    endloop
  endfacet
  facet normal  9.238786e-001  0.000000e+000 -3.826856e-001
    outer loop
      vertex -8.238388e+001  1.500000e+000  5.638388e+001
      vertex -8.238388e+001 -1.500000e+000  5.638388e+001
      vertex -8.275000e+001 -1.500000e+000  5.550000e+001
    endloop
  endfacet
  facet normal  9.238786e-001  0.000000e+000 -3.826856e-001
    outer loop
      vertex -8.238388e+001  1.500000e+000  5.638388e+001
      vertex -8.275000e+001 -1.500000e+000  5.550000e+001
      vertex -8.275000e+001  1.500000e+000  5.550000e+001
    endloop
  endfacet
  facet normal  3.826845e-001  0.000000e+000  9.238790e-001
    outer loop
      vertex -8.150000e+001 -1.500000e+000  5.250000e+000
      vertex -8.238388e+001  1.500000e+000  5.616117e+000
      vertex -8.238388e+001 -1.500000e+000  5.616117e+000
    endloop
  endfacet
  facet normal  9.238786e-001  -0.000000e+000  3.826860e-001
    outer loop
      vertex -8.238388e+001 -1.500000e+000  5.616117e+000
      vertex -8.238388e+001  1.500000e+000  5.616117e+000
      vertex -8.275000e+001  1.500000e+000  6.500000e+000
    endloop
  endfacet
  facet normal  9.238786e-001  0.000000e+000  3.826860e-001
    outer loop
      vertex -8.238388e+001 -1.500000e+000  5.616117e+000
      vertex -8.275000e+001  1.500000e+000  6.500000e+000
      vertex -8.275000e+001 -1.500000e+000  6.500000e+000
    endloop
  endfacet
  facet normal  3.826845e-001  -0.000000e+000  9.238790e-001
    outer loop
      vertex -8.238388e+001  1.500000e+000  5.616117e+000
      vertex -8.150000e+001 -1.500000e+000  5.250000e+000
      vertex -8.150000e+001  1.500000e+000  5.250000e+000
    endloop
  endfacet
  facet normal -3.826845e-001  0.000000e+000  9.238790e-001
    outer loop
      vertex -8.150000e+001  1.500000e+000  5.250000e+000
      vertex -8.150000e+001 -1.500000e+000  5.250000e+000
      vertex -8.061612e+001 -1.500000e+000  5.616117e+000
    endloop
  endfacet
  facet normal -3.826845e-001  0.000000e+000  9.238790e-001
    outer loop
      vertex -8.150000e+001  1.500000e+000  5.250000e+000
      vertex -8.061612e+001 -1.500000e+000  5.616117e+000
      vertex -8.061612e+001  1.500000e+000  5.616117e+000
    endloop
  endfacet
  facet normal -9.238786e-001  0.000000e+000  3.826860e-001
    outer loop
      vertex -8.061612e+001  1.500000e+000  5.616117e+000
      vertex -8.061612e+001 -1.500000e+000  5.616117e+000
      vertex -8.025000e+001 -1.500000e+000  6.500000e+000
    endloop
  endfacet
  facet normal -9.238786e-001  0.000000e+000  3.826860e-001
    outer loop
      vertex -8.061612e+001  1.500000e+000  5.616117e+000
      vertex -8.025000e+001 -1.500000e+000  6.500000e+000
      vertex -8.025000e+001  1.500000e+000  6.500000e+000
    endloop
  endfacet
  facet normal -3.826845e-001  -0.000000e+000 -9.238790e-001
    outer loop
      vertex -8.150000e+001 -1.500000e+000  7.750000e+000
      vertex -8.061612e+001  1.500000e+000  7.383883e+000
      vertex -8.061612e+001 -1.500000e+000  7.383883e+000
    endloop
  endfacet
  facet normal -9.238786e-001  0.000000e+000 -3.826860e-001
    outer loop
      vertex -8.061612e+001 -1.500000e+000  7.383883e+000
      vertex -8.061612e+001  1.500000e+000  7.383883e+000
      vertex -8.025000e+001  1.500000e+000  6.500000e+000
    endloop
  endfacet
  facet normal -9.238786e-001  -0.000000e+000 -3.826860e-001
    outer loop
      vertex -8.061612e+001 -1.500000e+000  7.383883e+000
      vertex -8.025000e+001  1.500000e+000  6.500000e+000
      vertex -8.025000e+001 -1.500000e+000  6.500000e+000
    endloop
  endfacet
  facet normal -3.826845e-001  0.000000e+000 -9.238790e-001
    outer loop
      vertex -8.061612e+001  1.500000e+000  7.383883e+000
      vertex -8.150000e+001 -1.500000e+000  7.750000e+000
      vertex -8.150000e+001  1.500000e+000  7.750000e+000
    endloop
  endfacet
  facet normal  3.826845e-001  0.000000e+000 -9.238790e-001
    outer loop
      vertex -8.150000e+001  1.500000e+000  7.750000e+000
      vertex -8.150000e+001 -1.500000e+000  7.750000e+000
      vertex -8.238388e+001 -1.500000e+000  7.383883e+000
    endloop
  endfacet
  facet normal  3.826845e-001  0.000000e+000 -9.238790e-001
    outer loop
      vertex -8.150000e+001  1.500000e+000  7.750000e+000
      vertex -8.238388e+001 -1.500000e+000  7.383883e+000
      vertex -8.238388e+001  1.500000e+000  7.383883e+000
    endloop
  endfacet
  facet normal  9.238786e-001  0.000000e+000 -3.826860e-001
    outer loop
      vertex -8.238388e+001  1.500000e+000  7.383883e+000
      vertex -8.238388e+001 -1.500000e+000  7.383883e+000
      vertex -8.275000e+001 -1.500000e+000  6.500000e+000
    endloop
  endfacet
  facet normal  9.238786e-001  0.000000e+000 -3.826860e-001
    outer loop
      vertex -8.238388e+001  1.500000e+000  7.383883e+000
      vertex -8.275000e+001 -1.500000e+000  6.500000e+000
      vertex -8.275000e+001  1.500000e+000  6.500000e+000
    endloop
  endfacet
  facet normal -1.000000e+000  0.000000e+000  -0.000000e+000
    outer loop
      vertex -8.600000e+001 -6.500000e+000  0.000000e+000
      vertex -8.600000e+001 -3.500000e+000  3.000000e+000
      vertex -8.600000e+001 -1.500000e+000  3.000000e+000
    endloop
  endfacet
  facet normal -1.000000e+000  0.000000e+000  -0.000000e+000
    outer loop
      vertex -8.600000e+001 -6.500000e+000  0.000000e+000
      vertex -8.600000e+001 -1.500000e+000  3.000000e+000
      vertex -8.600000e+001  1.500000e+000  3.000000e+000
    endloop
  endfacet
  facet normal -1.000000e+000  0.000000e+000  -0.000000e+000
    outer loop
      vertex -8.600000e+001 -6.500000e+000  0.000000e+000
      vertex -8.600000e+001  1.500000e+000  3.000000e+000
      vertex -8.600000e+001  1.650000e+001  3.000000e+000
    endloop
  endfacet
  facet normal -1.000000e+000  0.000000e+000  -0.000000e+000
    outer loop
      vertex -8.600000e+001 -6.500000e+000  0.000000e+000
      vertex -8.600000e+001  1.650000e+001  3.000000e+000
      vertex -8.600000e+001  1.950000e+001  0.000000e+000
    endloop
  endfacet
  facet normal -1.000000e+000  0.000000e+000  0.000000e+000
    outer loop
      vertex -8.600000e+001 -1.500000e+000  3.000000e+000
      vertex -8.600000e+001 -1.500000e+000  6.000000e+001
      vertex -8.600000e+001  1.500000e+000  3.000000e+000
    endloop
  endfacet
  facet normal -1.000000e+000  0.000000e+000  0.000000e+000
    outer loop
      vertex -8.600000e+001  1.500000e+000  3.000000e+000
      vertex -8.600000e+001 -1.500000e+000  6.000000e+001
      vertex -8.600000e+001  1.500000e+000  6.000000e+001
    endloop
  endfacet
  facet normal  1.000000e+000  0.000000e+000  0.000000e+000
    outer loop
      vertex  0.000000e+000 -6.500000e+000  0.000000e+000
      vertex  0.000000e+000  1.950000e+001  0.000000e+000
      vertex  0.000000e+000  1.650000e+001  3.000000e+000
    endloop
  endfacet
  facet normal  1.000000e+000  0.000000e+000  0.000000e+000
    outer loop
      vertex  0.000000e+000 -6.500000e+000  0.000000e+000
      vertex  0.000000e+000  1.650000e+001  3.000000e+000
      vertex  0.000000e+000  1.500000e+000  3.000000e+000
    endloop
  endfacet
  facet normal  1.000000e+000  0.000000e+000  0.000000e+000
    outer loop
      vertex  0.000000e+000 -6.500000e+000  0.000000e+000
      vertex  0.000000e+000  1.500000e+000  3.000000e+000
      vertex  0.000000e+000 -1.500000e+000  3.000000e+000
    endloop
  endfacet
  facet normal  1.000000e+000  0.000000e+000  0.000000e+000
    outer loop
      vertex  0.000000e+000 -6.500000e+000  0.000000e+000
      vertex  0.000000e+000 -1.500000e+000  3.000000e+000
      vertex  0.000000e+000 -3.500000e+000  3.000000e+000
    endloop
  endfacet
  facet normal  1.000000e+000  0.000000e+000  0.000000e+000
    outer loop
      vertex  0.000000e+000 -1.500000e+000  3.000000e+000
      vertex  0.000000e+000  1.500000e+000  3.000000e+000
      vertex  0.000000e+000 -1.500000e+000  6.000000e+001
    endloop
  endfacet
  facet normal  1.000000e+000  -0.000000e+000  0.000000e+000
    outer loop
      vertex  0.000000e+000 -1.500000e+000  6.000000e+001
      vertex  0.000000e+000  1.500000e+000  3.000000e+000
      vertex  0.000000e+000  1.500000e+000  6.000000e+001
    endloop
  endfacet
  facet normal  0.000000e+000  0.000000e+000  1.000000e+000
    outer loop
      vertex  0.000000e+000 -3.500000e+000  3.000000e+000
      vertex  0.000000e+000 -1.500000e+000  3.000000e+000
      vertex -8.600000e+001 -3.500000e+000  3.000000e+000
    endloop
  endfacet
  facet normal  0.000000e+000  0.000000e+000  1.000000e+000
    outer loop
      vertex -8.600000e+001 -3.500000e+000  3.000000e+000
      vertex  0.000000e+000 -1.500000e+000  3.000000e+000
      vertex -8.600000e+001 -1.500000e+000  3.000000e+000
    endloop
  endfacet
  facet normal  0.000000e+000  0.000000e+000  1.000000e+000
    outer loop
      vertex  0.000000e+000 -1.500000e+000  6.000000e+001
      vertex  0.000000e+000  1.500000e+000  6.000000e+001
      vertex -8.600000e+001 -1.500000e+000  6.000000e+001
    endloop
  endfacet
  facet normal  0.000000e+000  0.000000e+000  1.000000e+000
    outer loop
      vertex -8.600000e+001 -1.500000e+000  6.000000e+001
      vertex  0.000000e+000  1.500000e+000  6.000000e+001
      vertex -8.600000e+001  1.500000e+000  6.000000e+001
    endloop
  endfacet
  facet normal  0.000000e+000  0.000000e+000  1.000000e+000
    outer loop
      vertex  0.000000e+000  1.500000e+000  3.000000e+000
      vertex  0.000000e+000  1.650000e+001  3.000000e+000
      vertex -8.600000e+001  1.500000e+000  3.000000e+000
    endloop
  endfacet
  facet normal  0.000000e+000  0.000000e+000  1.000000e+000
    outer loop
      vertex -8.600000e+001  1.500000e+000  3.000000e+000
      vertex  0.000000e+000  1.650000e+001  3.000000e+000
      vertex -8.600000e+001  1.650000e+001  3.000000e+000
    endloop
  endfacet
  facet normal  -0.000000e+000  7.071068e-001  7.071068e-001
    outer loop
      vertex  0.000000e+000  1.950000e+001  0.000000e+000
      vertex -8.600000e+001  1.950000e+001  0.000000e+000
      vertex  0.000000e+000  1.650000e+001  3.000000e+000
    endloop
  endfacet
  facet normal  0.000000e+000  7.071068e-001  7.071068e-001
    outer loop
      vertex  0.000000e+000  1.650000e+001  3.000000e+000
      vertex -8.600000e+001  1.950000e+001  0.000000e+000
      vertex -8.600000e+001  1.650000e+001  3.000000e+000
    endloop
  endfacet
  facet normal  0.000000e+000  0.000000e+000 -1.000000e+000
    outer loop
      vertex  0.000000e+000  1.950000e+001  0.000000e+000
      vertex  0.000000e+000 -6.500000e+000  0.000000e+000
      vertex -8.600000e+001  1.950000e+001  0.000000e+000
    endloop
  endfacet
  facet normal  0.000000e+000  0.000000e+000 -1.000000e+000
    outer loop
      vertex -8.600000e+001  1.950000e+001  0.000000e+000
      vertex  0.000000e+000 -6.500000e+000  0.000000e+000
      vertex -8.600000e+001 -6.500000e+000  0.000000e+000
    endloop
  endfacet
  facet normal  0.000000e+000 -7.071068e-001  7.071068e-001
    outer loop
      vertex  0.000000e+000 -6.500000e+000  0.000000e+000
      vertex  0.000000e+000 -3.500000e+000  3.000000e+000
      vertex -8.600000e+001 -6.500000e+000  0.000000e+000
    endloop
  endfacet
  facet normal  0.000000e+000 -7.071068e-001  7.071068e-001
    outer loop
      vertex -8.600000e+001 -6.500000e+000  0.000000e+000
      vertex  0.000000e+000 -3.500000e+000  3.000000e+000
      vertex -8.600000e+001 -3.500000e+000  3.000000e+000
    endloop
  endfacet
endsolid CATIA STL
